<svg width="90" height="100" viewBox="0 0 90 100" fill="none" xmlns="http://www.w3.org/2000/svg">
<g clip-path="url(#clip0_48207_148133)">
<path d="M51.727 38.4219L56.482 43.1769C56.482 43.1769 65.5365 46.7178 66.5476 48.8924C67.5586 51.067 65.6375 50.9669 63.5126 50.6629C61.3876 50.359 55.369 46.6168 55.369 46.6168L49.8555 40.2429L51.727 38.4219Z" fill="#3C8F7C"/>
<path d="M65.6433 47.9352L64.4707 47.5176L62.1943 48.5801C62.1943 48.5801 61.0218 49.3765 60.4499 51.349C59.8781 53.3215 60.4499 65.1206 61.3979 67.0174C62.3458 68.9141 65.6433 47.9352 65.6433 47.9352Z" fill="#F7CC7F"/>
<path d="M73.1104 95.2525C73.1104 95.2525 73.9465 95.7936 74.0123 96.038C74.0781 96.2825 74.6942 98.9675 74.4633 99.2778C74.2324 99.5881 73.3936 99.4384 73.7201 99.6648C73.9663 99.8352 75.5564 99.966 76.572 99.6918C76.8688 99.6124 76.7335 97.1059 76.7768 96.7244C76.8399 96.1697 77.2277 94.9115 76.9914 94.5832C76.8778 94.4236 76.2248 94.1422 75.6385 93.914C75.0216 93.6732 74.3361 92.9922 74.3361 92.9922L73.1104 95.2525Z" fill="#F7A491"/>
<path d="M75.5902 93.8926C75.5902 93.8926 75.0968 98.6485 74.5187 99.0002C74.3654 99.0904 73.5527 99.1626 73.4779 99.5513C73.4779 99.5603 73.4589 99.9491 73.7052 99.959L76.788 99.949C76.788 99.949 76.8195 97.6112 76.8006 96.6949C76.8006 96.6949 77.2263 94.3562 77.0874 94.1812C76.9485 94.0062 75.5902 93.8926 75.5902 93.8926Z" fill="#3C8F7C"/>
<path d="M85.1768 95.2525C85.1768 95.2525 86.0128 95.7936 86.0787 96.038C86.1445 96.2825 86.7605 98.9675 86.5296 99.2778C86.2987 99.5881 85.46 99.4384 85.7865 99.6648C86.0327 99.8352 87.6219 99.966 88.6383 99.6918C88.9342 99.6124 88.7989 97.1059 88.8431 96.7244C88.9062 96.1697 89.2895 94.9115 89.0568 94.5832C88.9432 94.4236 88.2911 94.1422 87.7039 93.914C87.087 93.6732 86.4016 92.9922 86.4016 92.9922L85.1768 95.2525Z" fill="#F7A491"/>
<path d="M70.0331 64.3457C70.0331 64.3457 72.8516 69.9431 73.4298 71.4457L77.7247 82.3438L87.195 93.4862C87.195 93.4862 86.5015 95.2775 85.4525 95.7573C85.4525 95.7573 74.0313 86.535 73.096 85.082C71.6638 82.8687 65.1428 69.3027 65.1428 69.3027L63.9297 66.6979L70.0331 64.3457Z" fill="#B75742"/>
<path d="M63.2205 64.2843L63.2656 69.0564C63.2656 69.0564 61.2263 84.6454 61.6223 85.5717C62.5856 87.8265 73.1796 95.4857 73.1796 95.4857L74.6227 93.0072L67.0095 84.5092L69.8957 76.2394C70.7029 74.3183 72.4211 70.6059 72.3751 68.5225C72.3372 66.7375 68.7989 62.5977 68.7989 62.5977L63.2205 64.2843Z" fill="#F47458"/>
<path d="M67.5462 71.3388C70.353 70.7012 72.625 69.709 72.8577 68.9262C72.9632 68.5717 71.3975 65.0109 70.2421 60.2568C69.866 58.7046 69.9336 57.2461 69.3311 51.8093C69.2031 50.6566 68.7259 48.2394 66.9401 47.6153C66.3087 47.397 65.9624 47.425 65.9624 47.425C65.948 47.425 63.6904 47.4421 62.6577 48.0158C62.4034 48.3612 61.4527 50.2544 61.2002 55.4116C61.0892 57.6664 60.6401 64.8963 60.7321 66.0715C60.7456 66.2465 60.7636 66.4152 60.7844 66.5784C61.193 69.7018 64.4769 72.036 67.5462 71.3388Z" fill="#3C8F7C"/>
<path d="M62.585 51.5445H62.5931C63.7376 51.4182 66.6157 47.6473 66.6157 47.6473L66.6094 47.6374L64.8335 44.8242C64.8335 44.8242 62.2179 45.3004 62.7293 46.0977C63.2407 46.8951 63.5284 48.8035 63.5284 48.8035C63.5194 48.8252 63.5076 48.8513 63.4923 48.8829C63.3128 49.2725 62.7266 50.4288 62.585 51.5445Z" fill="#F7A491"/>
<path d="M62.7296 46.094C62.2173 45.2985 64.8338 44.8223 64.8338 44.8223L64.9817 45.0559C64.989 45.2368 64.964 45.4177 64.9078 45.5898C64.6022 46.3898 64.0073 47.0458 63.241 47.428C63.1111 46.9346 62.9388 46.4205 62.7296 46.094Z" fill="#FE875E"/>
<path d="M63.3574 40.3755C63.4133 40.3214 65.3975 43.5846 64.9213 44.9285C64.4451 46.2724 62.8423 47.343 61.8899 46.8641C60.8373 46.3337 59.2454 42.5916 60.2051 41.0015C61.1647 39.4114 63.3574 40.3755 63.3574 40.3755Z" fill="#F7A491"/>
<path d="M60.4843 38.9108C61.6514 38.66 63.7376 39.001 64.9119 39.8308C66.355 40.8463 66.4028 42.6493 65.7525 43.8281C65.1022 45.007 65.4937 45.8737 65.4937 45.8737C65.4937 45.8737 63.4643 45.7466 63.053 44.3657C62.8808 43.7857 63.0954 43.3934 62.7058 43.066C62.4055 42.8144 62.1529 42.082 61.8553 41.4939C61.8553 41.4939 60.5457 40.7976 60.0514 41.3704C59.8773 41.567 58.9862 39.2328 60.4843 38.9108Z" fill="#F7CC7F"/>
<path d="M62.5009 43.3185C62.6813 43.7451 63.0231 44.0067 63.2711 43.9038C63.5192 43.801 63.576 43.3717 63.3983 42.9451C63.2206 42.5184 62.8761 42.2569 62.6281 42.3606C62.3801 42.4643 62.3232 42.8927 62.5009 43.3185Z" fill="#F7A491"/>
<path d="M87.6668 93.9004C87.6668 93.9004 87.1599 98.6509 86.5844 99.0027C86.4302 99.0929 85.6176 99.1651 85.5427 99.5538C85.5427 99.5628 85.5174 99.9642 85.7709 99.9579L88.8501 99.9515C88.8501 99.9515 88.8853 97.6137 88.8654 96.6973C88.8654 96.6973 89.2912 94.3586 89.1523 94.1836C89.0134 94.0086 87.6668 93.9004 87.6668 93.9004Z" fill="#3C8F7C"/>
<path d="M19.578 71.947C17.1311 66.8276 16.4591 59.1882 19.1271 53.1281C23.6232 42.8993 35.9932 38.7252 35.085 27.1335C34.855 24.2131 33.5517 21.8653 31.6423 20.3537C26.6068 16.378 18.5047 18.4822 12.7215 21.2556C9.02842 23.0294 5.59868 25.5455 2.4323 28.8039L0.823242 8.33002C7.76813 3.40457 16.1642 0.828648 24.5441 0.170237C41.7232 -1.18266 54.9897 5.26345 56.3399 22.448C57.5774 38.1236 46.9833 45.0667 39.8787 52.8972C35.9346 57.2463 35.0435 60.5961 35.3483 64.4762C35.5062 66.4821 36.2593 68.9597 37.4679 70.5381L19.578 71.947ZM31.9138 99.9448C15.2145 101.257 13.2807 78.8233 30.1496 77.4984C46.765 76.1924 48.5481 98.6379 31.9138 99.9448Z" fill="#F99746"/>
<path d="M49.1813 39.4579C49.1497 39.3163 49.2652 39.4282 49.0523 38.3215C48.9807 38.0159 48.841 37.7304 48.6437 37.4863C48.5323 37.36 48.405 37.2488 48.2649 37.1553C48.0737 37.0417 47.924 37.2275 47.9619 37.3357C47.9997 37.4439 48.1973 37.8047 48.2324 37.9093C48.2676 38.0139 48.2875 38.2701 48.2009 38.3603C48.1143 38.4505 46.7307 36.8604 46.6442 36.7215C46.5527 36.516 46.4738 36.3052 46.4078 36.0901C46.4078 36.0901 46.287 35.7149 46.1373 35.8105C46.0408 35.8728 45.9343 36.1821 46.2121 36.7909C46.4539 37.3231 46.7894 37.7479 46.7533 37.783C46.6541 37.8651 46.0534 37.1454 46.0534 37.1454C46.0534 37.1454 45.8442 36.7449 45.7017 36.6042C45.6115 36.3336 45.4491 36.0071 45.2786 36.137C45.2471 36.1605 45.3607 36.7278 45.3607 36.7278C45.3607 36.7278 45.57 37.1039 45.6593 37.2879C45.8171 37.6144 46.1752 38.0094 46.2987 38.2214C46.4006 38.4018 46.2987 38.3576 46.2933 38.3783C46.2879 38.3991 46.1319 38.1979 45.8956 37.9075C45.7765 37.7614 45.6133 37.6225 45.5005 37.4322C45.3822 37.2468 45.2511 37.0699 45.1082 36.9028C44.797 36.5312 44.6311 36.7837 44.8683 37.1733C44.9585 37.3222 45.0577 37.4845 45.1596 37.6478C45.5537 38.2791 46.0399 38.7797 45.9921 38.8392C45.9307 38.9168 45.0956 37.9589 45.0956 37.9589C45.0956 37.9589 44.5057 37.5666 44.8565 38.1447C45.0996 38.5504 45.3906 38.9253 45.7233 39.2613C45.8622 39.3822 46.232 39.9513 46.7749 40.2967C47.3179 40.6422 48.2 41.1644 48.2 41.1644C48.301 41.2871 48.5608 41.6839 48.9152 42.2467L50.2329 40.662C49.7739 40.1659 49.2029 39.5562 49.1813 39.4579Z" fill="#F8A492"/>
<path d="M48.1426 41.6933L49.9636 40.0996L56.2167 46.2706C56.2167 46.2706 65.8971 47.1194 65.9224 47.1266L66.3102 47.2474C69.8215 48.4605 68.3756 51.326 67.6992 51.7697C66.1235 52.8024 57.3703 52.1837 54.5662 50.4439C52.2563 49.0116 48.1426 41.6933 48.1426 41.6933Z" fill="#50BFA5"/>
</g>
<defs>
<clipPath id="clip0_48207_148133">
<rect width="88.356" height="100" fill="white" transform="translate(0.822266)"/>
</clipPath>
</defs>
</svg>
