<svg width="46" height="100" viewBox="0 0 46 100" fill="none" xmlns="http://www.w3.org/2000/svg">
<g clip-path="url(#clip0_48207_148186)">
<path d="M35.8026 92.1939C35.8026 92.1939 37.479 93.723 37.1509 94.8091C36.8228 95.8951 35.3129 96.6196 35.1081 97.9475C34.9033 99.2754 34.0867 99.9987 33.3515 99.9987H29.8455C29.8455 99.9987 29.3043 99.0647 30.6106 98.7833C31.917 98.5019 32.4068 96.9417 32.3301 95.4928C32.2535 94.0439 32.4499 92.1137 32.4499 92.1137L35.2278 91.4707L35.8026 92.1939Z" fill="#233862"/>
<path d="M15.2574 96.1496C15.2574 96.1496 15.5579 99.6293 14.8227 99.9909L5.41113 99.9718C5.41113 99.9718 5.41112 98.8857 6.92224 98.6438C8.43337 98.402 11.0892 97.5183 11.5394 95.5461C11.9897 93.574 15.2574 96.1496 15.2574 96.1496Z" fill="#233862"/>
<path d="M7.30664 47.0063C7.30664 47.0063 7.80237 53.1047 8.3843 60.4352C9.17699 70.3928 10.1301 82.6243 10.2247 84.9413C10.3875 88.9645 11.0425 95.4006 11.0425 95.4006C11.0425 95.4006 12.5991 96.9297 15.6992 96.2855C15.6992 96.2855 18.4676 87.0978 19.2579 77.376C19.2699 77.2168 19.2819 77.0563 19.295 76.8971C20.0302 67.0005 21.1738 46.1621 21.1738 46.1621L7.30664 47.0063Z" fill="#2A4E96"/>
<path d="M7.30664 47.0063C7.30664 47.0063 7.80237 53.1047 8.3843 60.4352L19.2579 77.376C19.2699 77.2168 19.2819 77.0563 19.295 76.8971C20.0302 67.0005 21.1738 46.1621 21.1738 46.1621L7.30664 47.0063Z" fill="#233862"/>
<path d="M9.57324 47.7299C9.57324 47.7299 18.5202 69.8148 24.4031 80.1939C30.2859 90.573 32.1252 93.4695 32.1252 93.4695C32.1252 93.4695 35.4958 92.1416 35.8024 91.2363C35.8024 91.2363 33.5524 71.199 29.613 66.3148C27.387 63.5607 25.4664 57.4312 25.5622 54.5335C25.7286 49.5367 23.8523 43.7461 23.8523 43.7461L9.57324 47.7299Z" fill="#2A4E96"/>
<path d="M2.42743 48.0586C2.42743 48.0586 0.751068 50.3205 0.631328 50.924C0.511587 51.5275 0.3643 53.678 0.564266 54.3139C0.764233 54.9497 1.80596 52.4315 2.22745 52.1418C2.64893 51.852 1.96404 53.1308 2.12808 53.3248C2.29213 53.5188 3.09678 52.5393 3.41409 52.2052C3.73141 51.8711 3.58173 50.196 3.92059 49.177C4.25946 48.158 2.42743 48.0586 2.42743 48.0586Z" fill="#FFB27D"/>
<path d="M9.79604 15.1836C9.79604 15.1836 7.53896 36.1992 7.3378 36.7979C7.29349 36.9285 7.11626 37.5942 6.8672 38.5509C6.50798 39.9172 6.00987 41.8821 5.5333 43.7489C4.81486 46.5711 4.03894 49.0174 4.03894 49.0174C4.03894 49.0174 3.69769 49.2378 2.87627 49.1671C2.70305 49.1456 2.53636 49.0875 2.38731 48.9967C2.23826 48.9058 2.11023 48.7843 2.01172 48.6402C2.01172 48.6402 2.09436 38.3222 2.59846 35.9705C3.10257 33.6188 4.71547 19.1697 5.53091 17.2252C6.34634 15.2806 9.79604 15.1836 9.79604 15.1836Z" fill="white"/>
<path d="M6.86631 38.5486C6.50709 39.9149 6.00898 41.8798 5.53241 43.7466C5.075 42.4094 4.75875 41.0281 4.58884 39.6251C4.13502 36.1526 5.53001 28.7383 5.53001 28.7383L6.86631 38.5486Z" fill="#DCEAFF"/>
<path d="M24.7443 47.4903C21.5042 49.3175 7.62149 49.2768 6.97849 47.8424C5.5416 44.6381 5.18237 28.3558 5.8601 23.3614C5.8601 23.3614 6.21095 15.6861 6.97849 16.0237C12.107 13.6684 20.4062 15.8082 20.4062 15.8082C22.6441 16.4668 22.4525 21.5809 23.0764 28.7629C23.1566 29.6873 23.2464 30.6524 23.3458 31.6487C23.7876 36.0791 24.4306 41.1788 25.4065 46.5527C25.4724 46.906 25.2257 47.2233 24.7443 47.4903Z" fill="white"/>
<path d="M16.5742 14.9426C16.488 16.3148 14.6979 16.1591 12.5438 15.6682C10.3896 15.1773 11.1715 13.908 11.1715 13.908C11.1715 13.908 11.2027 12.9333 11.3392 11.7635C11.3883 11.3396 11.4505 10.887 11.5319 10.4463C11.5703 10.2308 11.6122 10.02 11.6613 9.81529C11.9427 8.60711 15.9611 9.77338 15.9324 10.0979C15.8558 10.978 16.4868 13.8637 16.5742 14.9426Z" fill="#FFB27D"/>
<path d="M11.9571 17.34L11.7871 15.4434L14.1711 15.8936L13.2527 17.5867L11.9571 17.34Z" fill="#233862"/>
<path d="M11.2196 13.0156L9.7959 15.1817C9.82563 15.631 9.95131 16.0686 10.1645 16.4652C10.3776 16.8618 10.6733 17.2081 11.0316 17.4807L12.9786 15.6679C12.9786 15.6679 11.7201 15.1877 11.2196 13.0156Z" fill="#DCEAFF"/>
<path d="M12.9824 15.6707C12.9824 15.6707 13.3859 17.1183 14.1654 17.7829C14.1654 17.7829 17.2069 16.9651 17.9313 15.4084L16.3471 13.3633C16.3471 13.3633 16.2669 14.9103 12.9824 15.6707Z" fill="#DCEAFF"/>
<path d="M15.9529 10.7843C14.5609 11.602 12.9412 11.9461 11.3369 11.765C11.386 11.3411 11.4483 10.8885 11.5297 10.4478C12.059 10.3185 12.502 10.2383 12.502 10.2383L15.9529 10.7843Z" fill="#E2915A"/>
<path d="M17.1809 9.3231C16.2349 11.9263 12.7828 11.2617 11.3136 10.8438C10.8993 10.7241 10.643 10.6283 10.643 10.6283C10.1892 10.4223 10.0444 9.62964 10.0887 8.62861C10.1665 6.64691 10.9496 3.84858 11.3986 3.17444C12.0739 2.16024 13.1947 1.12927 16.5474 2.56496C19.9002 4.00064 18.3938 5.98714 17.1809 9.3231Z" fill="#FFB27D"/>
<path d="M19.7679 7.98294C18.7106 8.84507 16.4403 10.44 16.4403 10.44C16.4403 10.44 16.693 10.1419 17.0019 9.28093C17.0378 9.15369 17.0519 9.02132 17.0438 8.88937C17.0286 8.46858 17.1364 8.05248 17.3539 7.69197C17.4916 7.46806 17.5419 7.23456 17.3671 7.06932C17.0798 6.79871 16.59 7.04777 16.2691 7.26809C16.1655 7.33928 16.0436 7.37886 15.9179 7.38205C15.7923 7.38524 15.6685 7.35189 15.5614 7.28605C14.6586 6.72087 15.656 5.72942 14.922 4.89723C14.188 4.06503 11.0113 3.95727 11.1394 3.43879C10.0546 2.82572 10.7383 0.56502 10.7574 0.445279C11.9349 0.506023 13.1148 0.388964 14.2574 0.0980367C15.8344 -0.298304 17.5731 0.714694 18.1239 1.13259C18.1243 0.998974 18.094 0.86706 18.0353 0.747028C18.1734 0.883503 18.2583 1.06481 18.2747 1.25832C18.2987 1.28227 18.3095 1.29903 18.3023 1.30382C18.4748 1.2999 18.6456 1.33899 18.7992 1.41757C18.7992 1.41757 18.6651 1.37566 18.6016 1.45589C18.5941 1.46498 18.5847 1.47234 18.5741 1.47744C20.6755 2.95863 20.6456 7.26689 19.7679 7.98294Z" fill="#BC3F3F"/>
<path d="M12.1896 8.94756C12.1896 8.94756 12.0196 9.27445 11.1659 9.00264C11.1659 9.00264 10.4474 8.77513 10.5672 8.39675C10.5684 8.39675 11.3419 8.30815 12.1896 8.94756Z" fill="white"/>
<path d="M11.9574 17.3398C11.9574 17.3398 10.056 41.3682 10.0823 43.3702C10.1086 45.3723 12.1897 47.4893 12.1897 47.4893C12.1897 47.4893 13.8469 45.674 14.1702 43.7594C14.4935 41.8447 13.253 17.5865 13.253 17.5865L11.9574 17.3398Z" fill="#2A4E96"/>
<path d="M24.7441 47.4866C18.9642 46.6484 20.6202 27.5259 21.0741 27.4504C21.5279 27.375 23.1899 30.8702 23.1899 30.8702L23.3479 31.6449C23.7898 36.0753 24.4328 41.1751 25.4086 46.549C25.4721 46.9023 25.2254 47.2196 24.7441 47.4866Z" fill="#DCEAFF"/>
<path d="M41.7343 61.738L29.5124 65.2943C28.7454 65.5149 27.9222 65.4231 27.2226 65.0387C26.5231 64.6544 26.0041 64.0089 25.7789 63.2431L24.2378 57.947C24.0172 57.18 24.1091 56.3568 24.4934 55.6572C24.8777 54.9577 25.5232 54.4386 26.289 54.2135L38.5097 50.6572C39.2768 50.4362 40.1001 50.5277 40.7999 50.9118C41.4997 51.2959 42.019 51.9414 42.2444 52.7072L43.7855 58.0033C44.0061 58.7705 43.9143 59.5939 43.53 60.2936C43.1457 60.9933 42.5002 61.5126 41.7343 61.738Z" fill="#A02E2E"/>
<path d="M25.8475 57.4766L27.4041 62.8338C27.5489 63.3273 27.8169 63.7758 28.1828 64.1371C28.5488 64.4985 29.0007 64.7608 29.496 64.8993C29.8231 64.9919 30.1637 65.028 30.503 65.0058C30.7223 64.9898 30.9391 64.9496 31.1496 64.8861L43.3488 61.3358C44.1175 61.1098 44.7654 60.5888 45.1511 59.8865C45.5368 59.1842 45.6288 58.3579 45.4071 57.5879L43.8505 52.2307C43.6245 51.462 43.1034 50.8141 42.4012 50.4284C41.6989 50.0427 40.8725 49.9507 40.1026 50.1724L35.9021 51.395L35.5704 50.2514C35.4959 49.9977 35.3239 49.7838 35.0921 49.6566C34.8603 49.5293 34.5875 49.4991 34.3335 49.5725L33.8737 49.7066L31.3184 50.4502L30.6826 50.6358C30.429 50.71 30.2151 50.8817 30.0878 51.1134C29.9605 51.345 29.9303 51.6176 30.0037 51.8715L30.3365 53.015L27.9022 53.7227C27.8072 53.75 27.7136 53.7824 27.622 53.8197C27.1754 54.0007 26.7783 54.2855 26.4637 54.6505C26.149 55.0155 25.9259 55.4503 25.8127 55.9187C25.6871 56.432 25.699 56.9694 25.8475 57.4766ZM35.307 51.5746L30.9424 52.851L30.6108 51.7075C30.5833 51.6128 30.5945 51.5112 30.6419 51.4248C30.6892 51.3384 30.7689 51.2743 30.8634 51.2465L31.9602 50.928L33.9707 50.3412L34.5143 50.1844C34.5501 50.1739 34.5872 50.1691 34.6245 50.17C34.7037 50.1714 34.7805 50.198 34.8436 50.246C34.9068 50.294 34.9529 50.361 34.9753 50.437L35.307 51.5746Z" fill="#BC3F3F"/>
<path d="M31.6437 48.1544C31.6437 48.1544 31.2653 51.3227 31.9754 51.2772C32.6854 51.2317 34.424 50.8916 34.5426 50.3456C34.6611 49.7996 33.2111 47.2539 33.2111 47.2539L31.6437 48.1544Z" fill="#FFB27D"/>
<path d="M31.7343 48.1465C31.7343 48.1465 31.1907 48.8218 31.144 49.3535C31.0973 49.8851 30.8375 50.8143 31.0817 50.8742C31.326 50.9341 31.7702 49.7175 31.7702 49.7175L31.7343 48.1465Z" fill="#FFB27D"/>
<path d="M20.4062 15.8047C20.4062 15.8047 23.4752 16.5399 25.9023 21.2014C28.3295 25.8629 30.2453 35.2649 31.4104 37.7471C32.5755 40.2293 33.446 47.6748 33.446 47.6748C33.446 47.6748 33.2652 48.0448 32.6401 48.1801C32.3169 48.2434 31.9869 48.2647 31.6583 48.2436C31.6583 48.2436 27.0949 40.9394 26.44 38.3051C26.0807 36.8838 20.6709 25.5085 20.6709 25.5085L20.4062 15.8047Z" fill="white"/>
</g>
<defs>
<clipPath id="clip0_48207_148186">
<rect width="45.0643" height="100" fill="white" transform="translate(0.467773)"/>
</clipPath>
</defs>
</svg>
