<svg width="121" height="120" viewBox="0 0 121 120" fill="none" xmlns="http://www.w3.org/2000/svg">
<rect x="0.5" width="120" height="120" rx="60" fill="#999999"/>
<g clip-path="url(#clip0_48206_147769)">
<path d="M77.3023 50.2465C76.5837 49.4936 75.5913 49.0488 74.462 49.0488H68.7814V48.9803C68.7814 48.1248 68.4392 47.3035 67.8574 46.756C67.2757 46.1742 66.4886 45.832 65.6331 45.832H55.3669C54.4772 45.832 53.6901 46.1742 53.1084 46.756C52.5266 47.3377 52.1844 48.1248 52.1844 48.9803V49.0488H46.538C45.4087 49.0488 44.4163 49.4936 43.6977 50.2465C42.9791 50.9651 42.5 51.9917 42.5 53.0868V70.1286C42.5 71.2579 42.9449 72.2503 43.6977 72.9689C44.4163 73.6875 45.443 74.1666 46.538 74.1666H74.462C75.5913 74.1666 76.5837 73.7218 77.3023 72.9689C78.0209 72.2503 78.5 71.2237 78.5 70.1286V53.0868C78.5 51.9575 78.0551 50.9651 77.3023 50.2465ZM76.7205 70.1286H76.6863C76.6863 70.7446 76.4468 71.2921 76.0361 71.7028C75.6255 72.1134 75.0779 72.3529 74.462 72.3529H46.538C45.9221 72.3529 45.3745 72.1134 44.9639 71.7028C44.5532 71.2921 44.3137 70.7446 44.3137 70.1286V53.0868C44.3137 52.4708 44.5532 51.9233 44.9639 51.5126C45.3745 51.102 45.9221 50.8625 46.538 50.8625H53.1426C53.6559 50.8625 54.0665 50.4518 54.0665 49.9385V48.9461C54.0665 48.5697 54.2034 48.2275 54.443 47.9879C54.6825 47.7484 55.0247 47.6115 55.4011 47.6115H65.6331C66.0095 47.6115 66.3517 47.7484 66.5913 47.9879C66.8308 48.2275 66.9677 48.5697 66.9677 48.9461V49.9385C66.9677 50.4518 67.3783 50.8625 67.8916 50.8625H74.4962C75.1122 50.8625 75.6597 51.102 76.0703 51.5126C76.481 51.9233 76.7205 52.4708 76.7205 53.0868V70.1286Z" fill="white"/>
<path d="M60.4998 53.1895C58.1728 53.1895 56.0511 54.1476 54.5454 55.6533C53.0055 57.1933 52.0815 59.2807 52.0815 61.6077C52.0815 63.9347 53.0397 66.0564 54.5454 67.5621C56.0853 69.102 58.1728 70.026 60.4998 70.026C62.8268 70.026 64.9485 69.0678 66.4542 67.5621C67.9941 66.0222 68.9181 63.9347 68.9181 61.6077C68.9181 59.2807 67.9599 57.159 66.4542 55.6533C64.9485 54.1476 62.8268 53.1895 60.4998 53.1895ZM65.1538 66.2959C63.9561 67.4594 62.3135 68.2123 60.4998 68.2123C58.6861 68.2123 57.0435 67.4594 55.8458 66.2959C54.6481 65.0982 53.9295 63.4556 53.9295 61.6419C53.9295 59.8282 54.6823 58.1857 55.8458 56.9879C57.0435 55.7902 58.6861 55.0716 60.4998 55.0716C62.3135 55.0716 63.9561 55.8244 65.1538 56.9879C66.3515 58.1857 67.0701 59.8282 67.0701 61.6419C67.1044 63.4556 66.3515 65.0982 65.1538 66.2959Z" fill="white"/>
<path d="M72.6822 56.506C73.6082 56.506 74.359 55.7552 74.359 54.8292C74.359 53.9031 73.6082 53.1523 72.6822 53.1523C71.7561 53.1523 71.0054 53.9031 71.0054 54.8292C71.0054 55.7552 71.7561 56.506 72.6822 56.506Z" fill="white"/>
</g>
<defs>
<clipPath id="clip0_48206_147769">
<rect width="36" height="36" fill="white" transform="translate(42.5 42)"/>
</clipPath>
</defs>
</svg>
