<svg width="20" height="19" viewBox="0 0 20 19" fill="none" xmlns="http://www.w3.org/2000/svg">
<path d="M17.15 0.230469H2.85C2.09413 0.230469 1.36922 0.530736 0.834746 1.06521C0.300267 1.59969 0 2.3246 0 3.08047V12.7305C0.00263547 13.4855 0.303749 14.2089 0.837657 14.7428C1.37157 15.2767 2.09494 15.5778 2.85 15.5805H4V18.1005C4.00014 18.2133 4.03212 18.3239 4.09226 18.4194C4.1524 18.5149 4.23827 18.5916 4.34 18.6405C4.44472 18.6928 4.56195 18.7149 4.67853 18.7043C4.79511 18.6937 4.90642 18.6508 5 18.5805L8.88 15.5805H17.16C17.9133 15.5752 18.6341 15.2729 19.1659 14.7393C19.6976 14.2057 19.9974 13.4838 20 12.7305V3.08047C20 2.3246 19.6997 1.59969 19.1653 1.06521C18.6308 0.530736 17.9059 0.230469 17.15 0.230469ZM18.79 12.7305C18.79 13.1637 18.6186 13.5793 18.3132 13.8866C18.0078 14.1939 17.5932 14.3678 17.16 14.3705H8.68C8.54473 14.3659 8.41269 14.4123 8.31 14.5005L5.23 16.8805V14.9805C5.23 14.8187 5.16573 14.6635 5.05134 14.5491C4.93694 14.4347 4.78178 14.3705 4.62 14.3705H2.88C2.4477 14.3705 2.0331 14.1987 1.72742 13.8931C1.42173 13.5874 1.25 13.1728 1.25 12.7405V3.11047C1.25526 2.68164 1.42931 2.27216 1.73443 1.97079C2.03955 1.66942 2.45114 1.50044 2.88 1.50047H17.16C17.5923 1.50047 18.0069 1.6722 18.3126 1.97788C18.6183 2.28357 18.79 2.69817 18.79 3.13047V12.7505V12.7305Z" fill="white"/>
</svg>
