<svg width="18" height="18" viewBox="0 0 18 18" fill="none" xmlns="http://www.w3.org/2000/svg">
<path d="M10.0548 9.00468L17.7707 1.28882C18.0685 1.00121 18.0767 0.526666 17.7891 0.228866C17.5015 -0.0689331 17.027 -0.0771907 16.7292 0.210419C16.7229 0.216436 16.7168 0.222585 16.7107 0.228866L8.99482 7.94473L1.27896 0.228822C0.981163 -0.0587868 0.506616 -0.0505293 0.219007 0.24727C-0.0615745 0.537778 -0.0615745 0.998313 0.219007 1.28882L7.93487 9.00468L0.219007 16.7205C-0.0736534 17.0133 -0.0736534 17.4878 0.219007 17.7805C0.511711 18.0731 0.986258 18.0731 1.27896 17.7805L8.99482 10.0646L16.7107 17.7805C17.0085 18.0681 17.483 18.0599 17.7706 17.7621C18.0512 17.4715 18.0512 17.011 17.7706 16.7205L10.0548 9.00468Z" fill="#848484"/>
</svg>
