<svg width="20" height="18" viewBox="0 0 20 18" fill="none" xmlns="http://www.w3.org/2000/svg">
<path d="M18.5408 1.90172C17.5543 0.782422 16.1859 0.166016 14.6875 0.166016C12.5802 0.166016 11.246 1.42461 10.4979 2.48047C10.3038 2.75445 10.1386 3.02918 10 3.2877C9.86137 3.02918 9.69629 2.75445 9.50215 2.48047C8.75402 1.42461 7.41984 0.166016 5.3125 0.166016C3.81414 0.166016 2.44566 0.782461 1.45918 1.90176C0.518242 2.96949 0 4.39949 0 5.92832C0 7.5925 0.649727 9.14035 2.04473 10.7994C3.29148 12.2822 5.08512 13.8107 7.16211 15.5805C7.93605 16.2401 8.73641 16.9221 9.58848 17.6676L9.61406 17.69C9.72453 17.7868 9.86227 17.8351 10 17.8351C10.1377 17.8351 10.2755 17.7867 10.3859 17.69L10.4115 17.6676C11.2636 16.9221 12.0639 16.2401 12.838 15.5805C14.9149 13.8107 16.7085 12.2823 17.9553 10.7994C19.3503 9.14031 20 7.5925 20 5.92832C20 4.39949 19.4818 2.96949 18.5408 1.90172ZM12.0779 14.6886C11.4107 15.2571 10.724 15.8422 10 16.4716C9.27602 15.8423 8.58934 15.2571 7.92203 14.6885C3.85723 11.2247 1.17188 8.93641 1.17188 5.92832C1.17188 4.68496 1.58613 3.53012 2.33836 2.67656C3.09922 1.81332 4.15543 1.33789 5.3125 1.33789C6.9191 1.33789 7.95766 2.32766 8.54594 3.15797C9.07363 3.90266 9.34898 4.65336 9.44289 4.94152C9.52145 5.18273 9.74633 5.34598 10 5.34598C10.2537 5.34598 10.4786 5.18273 10.5571 4.94152C10.651 4.65336 10.9264 3.90266 11.4541 3.15793C12.0423 2.32766 13.0809 1.33789 14.6875 1.33789C15.8446 1.33789 16.9008 1.81332 17.6616 2.67656C18.4139 3.53012 18.8281 4.68496 18.8281 5.92832C18.8281 8.93641 16.1428 11.2247 12.0779 14.6886Z" fill="#1FA2FF"/>
</svg>
