<svg width="80" height="31" viewBox="0 0 80 31" fill="none" xmlns="http://www.w3.org/2000/svg">
<path d="M1 28.1087L2.85714 21.1739L5.95238 30L7.80952 11.087L10.2857 21.1739L12.1429 12.9783L14 16.7609L17.1571 1L20.1905 11.087L22.6667 7.93478L26.381 19.2826L28.8571 12.9783L31.9524 21.1739L35.0476 16.7609L38.1429 24.3261L41.8571 11.087L44.9524 16.7609L47.4286 7.93478L49.9048 11.087L51.7619 7.93478L55.4762 19.2826L57.8286 14.8696L60.4286 19.2826L62.8429 12.9783L66 20.5435L68.9714 16.7609L72.1905 24.3261L74.6667 21.1739L79 28.7391" stroke="#FF1A1A" stroke-linecap="round" stroke-linejoin="round"/>
</svg>
