<svg width="16" height="16" viewBox="0 0 16 16" fill="none" xmlns="http://www.w3.org/2000/svg">
<path d="M15.6064 7.83672C14.0127 5.13984 11.1189 3.44922 8.0002 3.44922C4.88145 3.44922 1.98457 5.13984 0.393945 7.83672C0.32832 7.93359 0.32832 8.06485 0.393945 8.16172C1.9877 10.8586 4.88145 12.5492 8.0002 12.5492C11.1189 12.5492 14.0158 10.8586 15.6064 8.16172C15.6721 8.06485 15.6721 7.93359 15.6064 7.83672ZM8.0002 11.8992C5.17207 11.8992 2.5377 10.4055 1.0752 7.99922C2.5377 5.59297 5.17207 4.09922 8.0002 4.09922C10.8283 4.09922 13.4627 5.59297 14.9252 7.99922C13.4627 10.4055 10.8283 11.8992 8.0002 11.8992Z" fill="white"/>
<path d="M8.0002 5.07422C6.3752 5.07422 5.0752 6.37422 5.0752 7.99922C5.0752 9.62422 6.3752 10.9242 8.0002 10.9242C9.6252 10.9242 10.9252 9.62422 10.9252 7.99922C10.9252 6.37422 9.6252 5.07422 8.0002 5.07422ZM8.0002 10.2742C6.73145 10.2742 5.7252 9.26484 5.7252 7.99922C5.7252 6.73359 6.73457 5.72422 8.0002 5.72422C9.26582 5.72422 10.2752 6.73359 10.2752 7.99922C10.2752 9.26484 9.26895 10.2742 8.0002 10.2742Z" fill="white"/>
<path d="M8.0002 6.69922V7.34922C8.35645 7.34922 8.6502 7.64297 8.6502 7.99922C8.6502 8.35547 8.35645 8.64922 8.0002 8.64922C7.64395 8.64922 7.3502 8.35547 7.3502 7.99922H6.7002C6.7002 8.71484 7.28457 9.29922 8.0002 9.29922C8.71582 9.29922 9.3002 8.71484 9.3002 7.99922C9.3002 7.28359 8.71582 6.69922 8.0002 6.69922Z" fill="white"/>
</svg>
