<svg width="100" height="100" viewBox="0 0 100 100" fill="none" xmlns="http://www.w3.org/2000/svg">
<g clip-path="url(#clip0_48207_147932)">
<path d="M74.7254 96.8461V99.1153C74.7244 99.2939 74.6613 99.4666 74.5469 99.6038C74.419 99.7579 74.2494 99.8719 74.0584 99.9321C73.9964 99.9522 73.9328 99.967 73.8682 99.9764C73.807 99.9858 73.7452 99.9906 73.6833 99.9907H30.6251C30.0702 99.9907 29.613 99.6208 29.583 99.1609C29.583 99.1466 29.583 99.131 29.583 99.1153V96.8461C29.583 96.8305 29.583 96.8161 29.583 96.8005C29.6117 96.3407 30.0689 95.9707 30.6251 95.9707H73.6833C73.7452 95.9708 73.807 95.9756 73.8682 95.985C73.9328 95.9948 73.9964 96.0101 74.0584 96.0306C74.2496 96.0898 74.4193 96.2034 74.5469 96.3576C74.6613 96.4948 74.7244 96.6675 74.7254 96.8461Z" fill="#FFB93E"/>
<path d="M53.5829 99.9909H30.5167C30.2855 99.9962 30.061 99.9134 29.8886 99.7593C29.7161 99.6053 29.6086 99.3914 29.5879 99.1611C29.5879 99.1468 29.5879 99.1312 29.5879 99.1156V96.8463C29.5879 96.8307 29.5879 96.8164 29.5879 96.8007C29.6086 96.5704 29.7161 96.3566 29.8886 96.2026C30.061 96.0485 30.2855 95.9657 30.5167 95.9709H50.7509C51.1815 97.6075 52.1868 99.0345 53.5829 99.9909Z" fill="#FFA412"/>
<path d="M69.4869 95.9707H68.9971V99.9907H69.4869V95.9707Z" fill="#FFA412"/>
<path d="M67.8306 95.9707H67.3408V99.9907H67.8306V95.9707Z" fill="#FFA412"/>
<path d="M65.8433 95.9707H65.3535V99.9907H65.8433V95.9707Z" fill="#FFA412"/>
<path d="M62.7994 95.9707H62.3096V99.9907H62.7994V95.9707Z" fill="#FFA412"/>
<path d="M59.5786 95.9707H59.0889V99.9907H59.5786V95.9707Z" fill="#FFA412"/>
<path d="M54.6431 95.9707H54.1533V99.9907H54.6431V95.9707Z" fill="#FFA412"/>
<path d="M50.023 95.9707H49.5332V99.9907H50.023V95.9707Z" fill="#FFA412"/>
<path d="M45.896 95.9707H45.4062V99.9907H45.896V95.9707Z" fill="#FFA412"/>
<path d="M71.064 95.9707H70.5742V99.9907H71.064V95.9707Z" fill="#FFA412"/>
<path d="M72.106 95.9707H71.6162V99.9907H72.106V95.9707Z" fill="#FFA412"/>
<path d="M73.1109 95.9707H72.6211V99.9907H73.1109V95.9707Z" fill="#FFA412"/>
<path d="M73.8729 95.985V99.9764C73.8117 99.9859 73.7499 99.9907 73.688 99.9907H73.3779V95.9707H73.6827C73.7464 95.9705 73.81 95.9753 73.8729 95.985Z" fill="#FFA412"/>
<path d="M74.5471 96.3569V99.6031C74.4192 99.7572 74.2496 99.8712 74.0586 99.9314V96.0234C74.2505 96.0844 74.4204 96.2003 74.5471 96.3569Z" fill="#FFA412"/>
<path d="M70.1219 92.8272V95.0977C70.1209 95.2763 70.0578 95.449 69.9434 95.5862C69.8153 95.7398 69.6457 95.8533 69.4549 95.9132C69.3929 95.9337 69.3293 95.949 69.2647 95.9588C69.2039 95.9678 69.1425 95.9721 69.0811 95.9718H26.0255C25.4706 95.9718 25.0134 95.6032 24.9834 95.142C24.9834 95.1277 24.9834 95.1121 24.9834 95.0977V92.8272C24.9834 92.8129 24.9834 92.7972 24.9834 92.7829C25.0121 92.3218 25.4693 91.9531 26.0255 91.9531H69.0811H69.1631H69.1983H69.2374H69.2647C69.3293 91.9625 69.3929 91.9773 69.4549 91.9974L69.4823 92.0065L69.5083 92.017L69.5604 92.0378L69.5904 92.0521L69.6177 92.0652C69.6347 92.073 69.6503 92.0821 69.6659 92.0912L69.7193 92.1238L69.7597 92.1524L69.7858 92.172C69.8121 92.1923 69.8373 92.2141 69.8613 92.2371L69.8822 92.2579C69.89 92.2579 69.8952 92.2723 69.903 92.2788L69.9408 92.3231C70.0587 92.4645 70.1228 92.6431 70.1219 92.8272Z" fill="#FFB93E"/>
<path d="M48.9794 95.9701H25.9132C25.682 95.9753 25.4575 95.8925 25.285 95.7385C25.1126 95.5844 25.0051 95.3706 24.9844 95.1403C24.9844 95.126 24.9844 95.1103 24.9844 95.096V92.8255C24.9844 92.8112 24.9844 92.7955 24.9844 92.7812C25.0051 92.5509 25.1126 92.3371 25.285 92.183C25.4575 92.029 25.682 91.9462 25.9132 91.9514H46.1461C46.1552 91.984 46.1656 92.0165 46.1747 92.0504C46.6189 93.6465 47.6121 95.0346 48.9794 95.9701Z" fill="#FFA412"/>
<path d="M64.8833 91.9492H64.3936V95.9692H64.8833V91.9492Z" fill="#FFA412"/>
<path d="M63.2261 91.9492H62.7363V95.9692H63.2261V91.9492Z" fill="#FFA412"/>
<path d="M61.2398 91.9492H60.75V95.9692H61.2398V91.9492Z" fill="#FFA412"/>
<path d="M58.1959 91.9492H57.7061V95.9692H58.1959V91.9492Z" fill="#FFA412"/>
<path d="M54.9771 91.9492H54.4873V95.9692H54.9771V91.9492Z" fill="#FFA412"/>
<path d="M50.0396 91.9492H49.5498V95.9692H50.0396V91.9492Z" fill="#FFA412"/>
<path d="M45.4195 91.9492H44.9297V95.9692H45.4195V91.9492Z" fill="#FFA412"/>
<path d="M41.2925 91.9492H40.8027V95.9692H41.2925V91.9492Z" fill="#FFA412"/>
<path d="M66.4595 91.9492H65.9697V95.9692H66.4595V91.9492Z" fill="#FFA412"/>
<path d="M67.5015 91.9492H67.0117V95.9692H67.5015V91.9492Z" fill="#FFA412"/>
<path d="M68.5074 91.9492H68.0176V95.9692H68.5074V91.9492Z" fill="#FFA412"/>
<path d="M69.2642 91.9675V95.9589C69.2034 95.9678 69.142 95.9722 69.0805 95.9719H68.7744V91.9532H69.0805C69.1421 91.9526 69.2035 91.9574 69.2642 91.9675Z" fill="#FFA412"/>
<path d="M69.9436 92.3374V95.5849C69.8155 95.7385 69.6459 95.852 69.4551 95.9119V92.0039C69.6467 92.0656 69.8164 92.1814 69.9436 92.3374Z" fill="#FFA412"/>
<path d="M72.3462 88.9047V91.1739C72.3451 91.3525 72.282 91.5252 72.1677 91.6624C72.0398 91.8165 71.8702 91.9305 71.6792 91.9907C71.6168 92.0109 71.5527 92.0258 71.4877 92.035C71.4269 92.0444 71.3655 92.0492 71.304 92.0493H28.2498C28.0844 92.0501 27.9207 92.0164 27.7691 91.9503C27.624 91.8937 27.4963 91.8 27.3987 91.6786C27.3011 91.5573 27.2371 91.4124 27.2129 91.2586C27.2116 91.2456 27.2116 91.2325 27.2129 91.2195C27.2129 91.2052 27.2129 91.1895 27.2129 91.1739V88.9047C27.2129 88.889 27.2129 88.8747 27.2129 88.8591C27.2415 88.3993 27.6988 88.0293 28.255 88.0293H71.304C71.3655 88.0294 71.4269 88.0342 71.4877 88.0436C71.5527 88.0533 71.6168 88.0685 71.6792 88.0892C71.8703 88.1484 72.0401 88.262 72.1677 88.4162C72.282 88.5534 72.3451 88.7261 72.3462 88.9047Z" fill="#FFB93E"/>
<path d="M51.2066 92.0515H28.1378C27.9892 92.052 27.8425 92.0181 27.7092 91.9525C27.5745 91.8888 27.4583 91.7919 27.3714 91.6709C27.2846 91.5499 27.23 91.4087 27.2129 91.2608C27.2116 91.2478 27.2116 91.2347 27.2129 91.2217C27.2129 91.2074 27.2129 91.1917 27.2129 91.1761V88.9069C27.2129 88.8912 27.2129 88.8769 27.2129 88.8613C27.2336 88.631 27.3411 88.4172 27.5135 88.2631C27.686 88.109 27.9105 88.0263 28.1417 88.0315H48.372C48.7873 89.6107 49.7381 90.9966 51.062 91.9525L51.2066 92.0515Z" fill="#FFA412"/>
<path d="M67.109 88.0293H66.6191V92.0493H67.109V88.0293Z" fill="#FFA412"/>
<path d="M65.4517 88.0293H64.9619V92.0493H65.4517V88.0293Z" fill="#FFA412"/>
<path d="M63.4654 88.0293H62.9756V92.0493H63.4654V88.0293Z" fill="#FFA412"/>
<path d="M60.4204 88.0293H59.9307V92.0493H60.4204V88.0293Z" fill="#FFA412"/>
<path d="M57.2007 88.0293H56.7109V92.0493H57.2007V88.0293Z" fill="#FFA412"/>
<path d="M52.2652 88.0293H51.7754V92.0493H52.2652V88.0293Z" fill="#FFA412"/>
<path d="M47.6441 88.0293H47.1543V92.0493H47.6441V88.0293Z" fill="#FFA412"/>
<path d="M43.5171 88.0293H43.0273V92.0493H43.5171V88.0293Z" fill="#FFA412"/>
<path d="M68.6851 88.0293H68.1953V92.0493H68.6851V88.0293Z" fill="#FFA412"/>
<path d="M69.7271 88.0293H69.2373V92.0493H69.7271V88.0293Z" fill="#FFA412"/>
<path d="M70.733 88.0293H70.2432V92.0493H70.733V88.0293Z" fill="#FFA412"/>
<path d="M71.4885 88.0436V92.035C71.4277 92.0444 71.3663 92.0492 71.3048 92.0493H71V88.0293H71.3048C71.3663 88.0294 71.4277 88.0342 71.4885 88.0436Z" fill="#FFA412"/>
<path d="M72.1682 88.4175V91.6637C72.0403 91.8178 71.8707 91.9318 71.6797 91.992V88.084C71.8716 88.1449 72.0415 88.2609 72.1682 88.4175Z" fill="#FFA412"/>
<path d="M73.3781 84.8871V87.1576C73.3761 87.3361 73.3131 87.5085 73.1996 87.6461C73.0712 87.8 72.9011 87.9135 72.7098 87.9731C72.6479 87.9939 72.5842 88.0092 72.5196 88.0187C72.4588 88.0277 72.3974 88.032 72.3359 88.0317H29.2804C28.7255 88.0317 28.2682 87.6631 28.2383 87.2019C28.2383 87.1876 28.2383 87.172 28.2383 87.1576V84.8871C28.2383 84.8728 28.2383 84.8572 28.2383 84.8428C28.2643 84.4169 28.6564 84.0691 29.1501 84.0196C29.1909 84.0169 29.2318 84.0169 29.2726 84.0196H72.3359C72.3974 84.0197 72.4588 84.0245 72.5196 84.0339C72.5842 84.043 72.6478 84.0578 72.7098 84.0782C72.9011 84.1378 73.0712 84.2513 73.1996 84.4051C73.3117 84.5411 73.3746 84.7109 73.3781 84.8871Z" fill="#FFB93E"/>
<path d="M52.2362 88.0317H29.17C28.9388 88.0369 28.7143 87.9541 28.5419 87.8001C28.3694 87.646 28.262 87.4322 28.2412 87.2019C28.2412 87.1876 28.2412 87.172 28.2412 87.1576V84.8871C28.2412 84.8728 28.2412 84.8572 28.2412 84.8428C28.2585 84.6311 28.3501 84.4324 28.4998 84.2817C28.6496 84.1311 28.8477 84.0382 29.0593 84.0195C29.0961 84.0169 29.1331 84.0169 29.17 84.0195H49.4029C49.8351 85.6537 50.8408 87.0778 52.2362 88.0317Z" fill="#FFA412"/>
<path d="M68.1392 84.0098H67.6494V88.0285H68.1392V84.0098Z" fill="#FFA412"/>
<path d="M66.4829 84.0098H65.9932V88.0285H66.4829V84.0098Z" fill="#FFA412"/>
<path d="M64.4966 84.0098H64.0068V88.0285H64.4966V84.0098Z" fill="#FFA412"/>
<path d="M61.4527 84.0098H60.9629V88.0285H61.4527V84.0098Z" fill="#FFA412"/>
<path d="M58.232 84.0098H57.7422V88.0285H58.232V84.0098Z" fill="#FFA412"/>
<path d="M53.2964 84.0098H52.8066V88.0285H53.2964V84.0098Z" fill="#FFA412"/>
<path d="M48.6744 84.0098H48.1846V88.0285H48.6744V84.0098Z" fill="#FFA412"/>
<path d="M44.5474 84.0098H44.0576V88.0285H44.5474V84.0098Z" fill="#FFA412"/>
<path d="M69.7163 84.0098H69.2266V88.0285H69.7163V84.0098Z" fill="#FFA412"/>
<path d="M70.7574 84.0098H70.2676V88.0285H70.7574V84.0098Z" fill="#FFA412"/>
<path d="M71.7632 84.0098H71.2734V88.0285H71.7632V84.0098Z" fill="#FFA412"/>
<path d="M72.5201 84.0261V88.0161C72.4594 88.0262 72.3979 88.031 72.3364 88.0304H72.0303V84.0118H72.3364C72.3979 84.0112 72.4594 84.016 72.5201 84.0261Z" fill="#FFA412"/>
<path d="M73.1998 84.3999V87.6474C73.0713 87.8012 72.9013 87.9148 72.71 87.9744V84.0664C72.9021 84.1278 73.0722 84.2437 73.1998 84.3999Z" fill="#FFA412"/>
<path d="M70.2132 80.8734V83.1427C70.2112 83.3211 70.1483 83.4935 70.0348 83.6312C69.9069 83.7857 69.7367 83.8993 69.545 83.9581C69.483 83.979 69.4194 83.9942 69.3548 84.0037L69.2948 84.0115H69.261H69.2271H26.1091C25.5541 84.0115 25.0969 83.6416 25.0669 83.1817C25.0669 83.1661 25.0669 83.1518 25.0669 83.1361V80.8669C25.0669 80.8513 25.0669 80.837 25.0669 80.8213C25.0662 80.8092 25.0662 80.797 25.0669 80.7849C25.1086 80.4149 25.4291 80.1088 25.8485 80.0189H25.8811C25.955 80.0053 26.03 79.9983 26.1051 79.998H69.1711H69.2649H69.3066H69.3548C69.4193 80.0071 69.483 80.0219 69.545 80.0423C69.7364 80.1023 69.9065 80.2163 70.0348 80.3706C70.1514 80.5121 70.2146 80.6901 70.2132 80.8734Z" fill="#FFB93E"/>
<path d="M49.0707 84.018H26.0045C25.7733 84.0232 25.5488 83.9405 25.3764 83.7864C25.2039 83.6323 25.0965 83.4185 25.0757 83.1882C25.0757 83.1726 25.0757 83.1583 25.0757 83.1426V80.8734C25.0757 80.8578 25.0757 80.8435 25.0757 80.8278C25.075 80.8157 25.075 80.8035 25.0757 80.7914C25.099 80.603 25.1814 80.4269 25.3111 80.2884C25.4408 80.1498 25.611 80.0559 25.7974 80.0202L25.8365 80.0124C25.8911 80.0029 25.9465 79.9981 26.0019 79.998H46.2374L46.2452 80.0267C46.6791 81.6482 47.6779 83.0613 49.0616 84.0115L49.0707 84.018Z" fill="#FFA412"/>
<path d="M64.9732 79.998H64.4834V84.0181H64.9732V79.998Z" fill="#FFA412"/>
<path d="M63.3179 79.998H62.8281V84.0181H63.3179V79.998Z" fill="#FFA412"/>
<path d="M61.3316 79.998H60.8418V84.0181H61.3316V79.998Z" fill="#FFA412"/>
<path d="M58.2876 79.998H57.7979V84.0181H58.2876V79.998Z" fill="#FFA412"/>
<path d="M55.0669 79.998H54.5771V84.0181H55.0669V79.998Z" fill="#FFA412"/>
<path d="M50.1314 79.998H49.6416V84.0181H50.1314V79.998Z" fill="#FFA412"/>
<path d="M45.5093 79.998H45.0195V84.0181H45.5093V79.998Z" fill="#FFA412"/>
<path d="M41.3824 79.998H40.8926V84.0181H41.3824V79.998Z" fill="#FFA412"/>
<path d="M66.5513 79.998H66.0615V84.0181H66.5513V79.998Z" fill="#FFA412"/>
<path d="M67.5923 79.998H67.1025V84.0181H67.5923V79.998Z" fill="#FFA412"/>
<path d="M68.5972 79.998H68.1074V84.0181H68.5972V79.998Z" fill="#FFA412"/>
<path d="M69.354 80.0124V84.0037C69.2933 84.0131 69.2319 84.0179 69.1704 84.0181H68.8643V79.998H69.1704C69.2319 79.9982 69.2933 80.003 69.354 80.0124Z" fill="#FFA412"/>
<path d="M70.0347 80.3856V83.6318C69.9069 83.7863 69.7366 83.8999 69.5449 83.9588V80.0508C69.7372 80.1126 69.9073 80.2289 70.0347 80.3856Z" fill="#FFA412"/>
<path d="M70.1216 76.8838V79.1531C70.1205 79.3317 70.0574 79.5044 69.9431 79.6416C69.8152 79.7957 69.6456 79.9096 69.4546 79.9699C69.406 79.9858 69.3564 79.9984 69.3061 80.0076H69.2657C69.2049 80.017 69.1435 80.0218 69.082 80.022H26.0252C25.9817 80.0219 25.9382 80.0193 25.8949 80.0141L25.8428 80.0076C25.3752 79.936 25.013 79.5999 24.9883 79.1922C24.9883 79.1765 24.9883 79.1622 24.9883 79.1466V76.8773C24.9883 76.8617 24.9883 76.8474 24.9883 76.8317C25.0169 76.3719 25.4742 76.002 26.0304 76.002H69.0807C69.1076 76.002 69.135 76.002 69.1628 76.002H69.198H69.237H69.2644C69.329 76.0118 69.3926 76.027 69.4546 76.0475L69.4819 76.0567L69.508 76.0658L69.5601 76.0879L69.6174 76.114L69.6656 76.14L69.719 76.1739L69.7594 76.2012C69.7686 76.207 69.7773 76.2136 69.7855 76.2208C69.8121 76.2408 69.8373 76.2625 69.861 76.2859L69.8819 76.3068L69.9027 76.3276C69.9157 76.3419 69.9288 76.3563 69.9405 76.3719C70.061 76.5149 70.1254 76.6969 70.1216 76.8838Z" fill="#FFB93E"/>
<path d="M48.9794 80.0313H25.8585H25.7998C25.5889 80.0116 25.3917 79.9183 25.2426 79.7678C25.0935 79.6173 25.0021 79.4192 24.9844 79.2081C24.9844 79.1924 24.9844 79.1781 24.9844 79.1624V76.8932C24.9844 76.8776 24.9844 76.8633 24.9844 76.8476C25.0051 76.6173 25.1126 76.4035 25.285 76.2494C25.4575 76.0954 25.682 76.0126 25.9132 76.0178H46.1461C46.1552 76.0517 46.1656 76.0842 46.1747 76.1181C46.6145 77.6977 47.5923 79.074 48.939 80.0092L48.9794 80.0313Z" fill="#FFA412"/>
<path d="M64.8833 76.0078H64.3936V80.0265H64.8833V76.0078Z" fill="#FFA412"/>
<path d="M63.2261 76.0078H62.7363V80.0265H63.2261V76.0078Z" fill="#FFA412"/>
<path d="M61.2398 76.0078H60.75V80.0265H61.2398V76.0078Z" fill="#FFA412"/>
<path d="M58.1959 76.0078H57.7061V80.0265H58.1959V76.0078Z" fill="#FFA412"/>
<path d="M54.9771 76.0078H54.4873V80.0265H54.9771V76.0078Z" fill="#FFA412"/>
<path d="M50.0396 76.0078H49.5498V80.0265H50.0396V76.0078Z" fill="#FFA412"/>
<path d="M45.4195 76.0078H44.9297V80.0265H45.4195V76.0078Z" fill="#FFA412"/>
<path d="M41.2925 76.0078H40.8027V80.0265H41.2925V76.0078Z" fill="#FFA412"/>
<path d="M66.4595 76.0078H65.9697V80.0265H66.4595V76.0078Z" fill="#FFA412"/>
<path d="M67.5015 76.0078H67.0117V80.0265H67.5015V76.0078Z" fill="#FFA412"/>
<path d="M68.5074 76.0078H68.0176V80.0265H68.5074V76.0078Z" fill="#FFA412"/>
<path d="M69.2642 76.0228V80.0142C69.2034 80.0236 69.142 80.0283 69.0805 80.0285H68.7744V76.0098H69.0805C69.142 76.0095 69.2034 76.0138 69.2642 76.0228Z" fill="#FFA412"/>
<path d="M69.9436 76.394V79.6403C69.8157 79.7943 69.6461 79.9083 69.4551 79.9685V76.0605C69.6467 76.1222 69.8164 76.238 69.9436 76.394Z" fill="#FFA412"/>
<path d="M72.3462 72.9633V75.2325C72.3452 75.4111 72.2821 75.5838 72.1678 75.721C72.0397 75.8746 71.8701 75.9881 71.6793 76.048C71.6169 76.0687 71.5528 76.0839 71.4878 76.0936C71.427 76.103 71.3656 76.1078 71.3041 76.1079H28.2498C28.0844 76.1083 27.9207 76.0742 27.7692 76.0076C27.6241 75.9513 27.4964 75.8579 27.3988 75.7368C27.3012 75.6156 27.2371 75.4709 27.2129 75.3172C27.2116 75.3038 27.2116 75.2902 27.2129 75.2768C27.2129 75.2625 27.2129 75.2482 27.2129 75.2325V72.9633C27.2129 72.9476 27.2129 72.932 27.2129 72.9177C27.2416 72.4578 27.6988 72.0879 28.2551 72.0879H71.3041C71.3656 72.088 71.427 72.0928 71.4878 72.1022C71.5528 72.1114 71.6168 72.1262 71.6793 72.1465C71.8702 72.2067 72.0398 72.3207 72.1678 72.4748C72.2821 72.612 72.3452 72.7847 72.3462 72.9633Z" fill="#FFB93E"/>
<path d="M51.2066 76.1081H28.1378C27.9891 76.1082 27.8425 76.0738 27.7092 76.0078C27.5746 75.9445 27.4583 75.8479 27.3715 75.727C27.2846 75.6062 27.23 75.4652 27.2129 75.3174C27.2116 75.304 27.2116 75.2905 27.2129 75.277C27.2129 75.2627 27.2129 75.2484 27.2129 75.2328V72.9635C27.2129 72.9479 27.2129 72.9323 27.2129 72.9179C27.2337 72.6876 27.3411 72.4738 27.5136 72.3197C27.686 72.1657 27.9105 72.0829 28.1417 72.0881H48.372C48.7878 73.6667 49.7386 75.0521 51.062 76.0078L51.2066 76.1081Z" fill="#FFA412"/>
<path d="M67.109 72.0879H66.6191V76.1079H67.109V72.0879Z" fill="#FFA412"/>
<path d="M65.4517 72.0879H64.9619V76.1079H65.4517V72.0879Z" fill="#FFA412"/>
<path d="M63.4654 72.0879H62.9756V76.1079H63.4654V72.0879Z" fill="#FFA412"/>
<path d="M60.4204 72.0879H59.9307V76.1079H60.4204V72.0879Z" fill="#FFA412"/>
<path d="M57.2007 72.0879H56.7109V76.1079H57.2007V72.0879Z" fill="#FFA412"/>
<path d="M52.2652 72.0879H51.7754V76.1079H52.2652V72.0879Z" fill="#FFA412"/>
<path d="M47.6441 72.0879H47.1543V76.1079H47.6441V72.0879Z" fill="#FFA412"/>
<path d="M43.5171 72.0879H43.0273V76.1079H43.5171V72.0879Z" fill="#FFA412"/>
<path d="M68.6851 72.0879H68.1953V76.1079H68.6851V72.0879Z" fill="#FFA412"/>
<path d="M69.7271 72.0879H69.2373V76.1079H69.7271V72.0879Z" fill="#FFA412"/>
<path d="M70.733 72.0879H70.2432V76.1079H70.733V72.0879Z" fill="#FFA412"/>
<path d="M71.4885 72.1009V76.0923C71.4277 76.1017 71.3663 76.1065 71.3048 76.1066H71V72.084H71.3048C71.3664 72.0849 71.4278 72.0906 71.4885 72.1009Z" fill="#FFA412"/>
<path d="M72.1682 72.4754V75.7216C72.0406 75.8758 71.8708 75.9894 71.6797 76.0486V72.1406C71.8715 72.2026 72.0412 72.3189 72.1682 72.4754Z" fill="#FFA412"/>
<path d="M75.865 68.9451V71.2143C75.864 71.3929 75.8009 71.5656 75.6866 71.7028C75.5587 71.8569 75.3891 71.9708 75.1981 72.031C75.1356 72.0513 75.0716 72.0661 75.0066 72.0753C74.9458 72.0848 74.8844 72.0896 74.8229 72.0897H31.7687C31.2138 72.0897 30.7565 71.7197 30.7266 71.2599C30.7266 71.2442 30.7266 71.2299 30.7266 71.2143V68.9451C30.7266 68.9294 30.7266 68.9151 30.7266 68.8995C30.7526 68.4748 31.146 68.1257 31.6384 68.0762C31.6788 68.0762 31.7205 68.0762 31.7622 68.0762H74.8229C74.8844 68.0763 74.9458 68.081 75.0066 68.0905C75.0716 68.1002 75.1357 68.1154 75.1981 68.1361C75.3892 68.1953 75.559 68.3089 75.6866 68.4631C75.7995 68.5985 75.8625 68.7687 75.865 68.9451Z" fill="#FFB93E"/>
<path d="M54.7238 72.0853H31.6563C31.4252 72.0906 31.2006 72.0078 31.0282 71.8537C30.8558 71.6997 30.7483 71.4858 30.7275 71.2555C30.7275 71.2399 30.7275 71.2256 30.7275 71.21V68.9407C30.7275 68.9251 30.7275 68.9108 30.7275 68.8951C30.7454 68.6834 30.8374 68.4848 30.9872 68.3342C31.1371 68.1836 31.3353 68.0907 31.5469 68.0718C31.5834 68.0698 31.6199 68.0698 31.6563 68.0718H51.8893C52.3223 69.7063 53.3283 71.1307 54.7238 72.0853Z" fill="#FFA412"/>
<path d="M70.6265 68.0664H70.1367V72.0864H70.6265V68.0664Z" fill="#FFA412"/>
<path d="M68.9703 68.0664H68.4805V72.0864H68.9703V68.0664Z" fill="#FFA412"/>
<path d="M66.9839 68.0664H66.4941V72.0864H66.9839V68.0664Z" fill="#FFA412"/>
<path d="M63.939 68.0664H63.4492V72.0864H63.939V68.0664Z" fill="#FFA412"/>
<path d="M60.7193 68.0664H60.2295V72.0864H60.7193V68.0664Z" fill="#FFA412"/>
<path d="M55.7828 68.0664H55.293V72.0864H55.7828V68.0664Z" fill="#FFA412"/>
<path d="M51.1626 68.0664H50.6729V72.0864H51.1626V68.0664Z" fill="#FFA412"/>
<path d="M47.0357 68.0664H46.5459V72.0864H47.0357V68.0664Z" fill="#FFA412"/>
<path d="M72.2037 68.0664H71.7139V72.0864H72.2037V68.0664Z" fill="#FFA412"/>
<path d="M73.2457 68.0664H72.7559V72.0864H73.2457V68.0664Z" fill="#FFA412"/>
<path d="M74.2515 68.0664H73.7617V72.0864H74.2515V68.0664Z" fill="#FFA412"/>
<path d="M75.0077 68.0807V72.0721C74.9465 72.0815 74.8846 72.0863 74.8227 72.0864H74.5244V68.0664H74.8292C74.889 68.0668 74.9486 68.0716 75.0077 68.0807Z" fill="#FFA412"/>
<path d="M75.6867 68.4526V71.6989C75.5588 71.853 75.3892 71.9669 75.1982 72.0271V68.1191C75.3902 68.1801 75.56 68.2961 75.6867 68.4526Z" fill="#FFA412"/>
<path d="M70.213 64.9294V67.2C70.211 67.3784 70.148 67.5508 70.0345 67.6885C69.9061 67.8423 69.736 67.9558 69.5447 68.0154C69.483 68.0364 69.4193 68.0513 69.3545 68.0597C69.3348 68.0636 69.3147 68.0662 69.2946 68.0675H69.2464H69.2217H26.1154C25.5604 68.0675 25.1032 67.6989 25.0732 67.2377C25.0732 67.2234 25.0732 67.2078 25.0732 67.1934V64.9229C25.0732 64.9086 25.0732 64.893 25.0732 64.8786C25.1006 64.4175 25.5578 64.0488 26.1154 64.0488H69.2334C69.2764 64.0488 69.3194 64.0553 69.3637 64.0605C69.4283 64.07 69.4919 64.0853 69.5539 64.1061C69.5848 64.1158 69.6152 64.1272 69.645 64.14L69.6984 64.1634C69.7168 64.1715 69.7346 64.1807 69.7519 64.1908C69.7519 64.1908 69.7519 64.1908 69.7597 64.1908C69.7762 64.1988 69.7919 64.2084 69.8066 64.2195C69.8432 64.242 69.878 64.2672 69.9108 64.295L69.9394 64.3198L69.9577 64.3367L69.9876 64.3693L70.0293 64.4162C70.1502 64.5597 70.2154 64.7418 70.213 64.9294Z" fill="#FFB93E"/>
<path d="M49.0712 68.0756H26.005C25.7738 68.0808 25.5493 67.998 25.3768 67.844C25.2044 67.6899 25.0969 67.4761 25.0762 67.2458C25.0762 67.2315 25.0762 67.2158 25.0762 67.2015V64.931C25.0762 64.9166 25.0762 64.901 25.0762 64.8867C25.0969 64.6564 25.2044 64.4426 25.3768 64.2885C25.5493 64.1344 25.7738 64.0516 26.005 64.0569H46.2379C46.2457 64.0868 46.2548 64.1181 46.2652 64.1494C46.7062 65.7448 47.6968 67.1331 49.062 68.0691L49.0712 68.0756Z" fill="#FFA412"/>
<path d="M64.9732 64.0547H64.4834V68.0747H64.9732V64.0547Z" fill="#FFA412"/>
<path d="M63.3179 64.0547H62.8281V68.0747H63.3179V64.0547Z" fill="#FFA412"/>
<path d="M61.3316 64.0547H60.8418V68.0747H61.3316V64.0547Z" fill="#FFA412"/>
<path d="M58.2876 64.0547H57.7979V68.0747H58.2876V64.0547Z" fill="#FFA412"/>
<path d="M55.0669 64.0547H54.5771V68.0747H55.0669V64.0547Z" fill="#FFA412"/>
<path d="M50.1314 64.0547H49.6416V68.0747H50.1314V64.0547Z" fill="#FFA412"/>
<path d="M45.5093 64.0547H45.0195V68.0747H45.5093V64.0547Z" fill="#FFA412"/>
<path d="M41.3824 64.0547H40.8926V68.0747H41.3824V64.0547Z" fill="#FFA412"/>
<path d="M66.5513 64.0547H66.0615V68.0747H66.5513V64.0547Z" fill="#FFA412"/>
<path d="M67.5923 64.0547H67.1025V68.0747H67.5923V64.0547Z" fill="#FFA412"/>
<path d="M68.5972 64.0547H68.1074V68.0747H68.5972V64.0547Z" fill="#FFA412"/>
<path d="M69.354 64.0677V68.0591C69.2933 68.0685 69.2319 68.0732 69.1704 68.0734H68.8643V64.0547H69.1704C69.2318 64.0544 69.2932 64.0588 69.354 64.0677Z" fill="#FFA412"/>
<path d="M70.0347 64.4428V67.6904C69.9063 67.8442 69.7362 67.9577 69.5449 68.0174V64.1094C69.737 64.1708 69.9072 64.2866 70.0347 64.4428Z" fill="#FFA412"/>
<path d="M73.3782 61.0036V63.2729C73.3762 63.4513 73.3133 63.6237 73.1997 63.7613C73.0715 63.9156 72.9014 64.0296 72.7099 64.0896C72.648 64.11 72.5843 64.1248 72.5198 64.1339C72.459 64.1433 72.3976 64.1481 72.3361 64.1482H29.2806C29.121 64.1484 28.9629 64.117 28.8155 64.0557C28.6664 64.0001 28.5347 63.9058 28.4342 63.7824C28.3337 63.6589 28.2679 63.5109 28.2436 63.3536C28.243 63.3419 28.243 63.3302 28.2436 63.3184C28.2436 63.3028 28.2436 63.2885 28.2436 63.2729V61.0036C28.2436 60.988 28.2436 60.9737 28.2436 60.958C28.2697 60.5321 28.6618 60.1843 29.1555 60.1348C29.1959 60.1348 29.2363 60.1348 29.278 60.1348H72.3361C72.3976 60.1349 72.459 60.1397 72.5198 60.1491C72.5844 60.1586 72.648 60.1738 72.7099 60.1947C72.9016 60.2535 73.0719 60.3672 73.1997 60.5216C73.3119 60.6576 73.3748 60.8275 73.3782 61.0036Z" fill="#FFB93E"/>
<path d="M52.236 64.1497H29.1698C29.0262 64.1498 28.8843 64.1182 28.7543 64.0572C28.6158 63.9943 28.4959 63.8965 28.4064 63.7735C28.3169 63.6504 28.2609 63.5063 28.2436 63.3551C28.243 63.3434 28.243 63.3317 28.2436 63.3199C28.2436 63.3043 28.2436 63.29 28.2436 63.2743V61.0051C28.2436 60.9895 28.2436 60.9752 28.2436 60.9595C28.2612 60.7479 28.3529 60.5493 28.5026 60.3987C28.6522 60.2481 28.8502 60.1552 29.0617 60.1363C29.0986 60.1343 29.1356 60.1343 29.1724 60.1363H49.4028C49.8199 61.7166 50.7736 63.1028 52.1006 64.0572C52.1462 64.0885 52.1904 64.1198 52.236 64.1497Z" fill="#FFA412"/>
<path d="M68.1392 60.1289H67.6494V64.1489H68.1392V60.1289Z" fill="#FFA412"/>
<path d="M66.4829 60.1289H65.9932V64.1489H66.4829V60.1289Z" fill="#FFA412"/>
<path d="M64.4966 60.1289H64.0068V64.1489H64.4966V60.1289Z" fill="#FFA412"/>
<path d="M61.4527 60.1289H60.9629V64.1489H61.4527V60.1289Z" fill="#FFA412"/>
<path d="M58.232 60.1289H57.7422V64.1489H58.232V60.1289Z" fill="#FFA412"/>
<path d="M53.2964 60.1289H52.8066V64.1489H53.2964V60.1289Z" fill="#FFA412"/>
<path d="M48.6744 60.1289H48.1846V64.1489H48.6744V60.1289Z" fill="#FFA412"/>
<path d="M44.5474 60.1289H44.0576V64.1489H44.5474V60.1289Z" fill="#FFA412"/>
<path d="M69.7163 60.1289H69.2266V64.1489H69.7163V60.1289Z" fill="#FFA412"/>
<path d="M70.7574 60.1289H70.2676V64.1489H70.7574V60.1289Z" fill="#FFA412"/>
<path d="M71.7632 60.1289H71.2734V64.1489H71.7632V60.1289Z" fill="#FFA412"/>
<path d="M72.5201 60.1423V64.1389C72.4593 64.1483 72.3979 64.1531 72.3364 64.1532H72.0303V60.1332H72.3364C72.3978 60.1316 72.4592 60.1347 72.5201 60.1423Z" fill="#FFA412"/>
<path d="M73.1998 60.5164V63.7626C73.0715 63.9169 72.9014 64.0309 72.71 64.0909V60.1895C72.9017 60.2483 73.0719 60.3619 73.1998 60.5164Z" fill="#FFA412"/>
<path d="M74.7254 56.99V59.2605C74.7234 59.4389 74.6604 59.6113 74.5469 59.749C74.4188 59.9026 74.2493 60.0161 74.0584 60.076C73.9964 60.0961 73.9328 60.1109 73.8682 60.1203C73.848 60.1241 73.8276 60.1267 73.807 60.1281H73.7731H30.6251C30.0702 60.1281 29.613 59.7594 29.583 59.2983C29.583 59.2839 29.583 59.2683 29.583 59.254V56.9835C29.583 56.9691 29.583 56.9535 29.583 56.9392C29.6117 56.478 30.0689 56.1094 30.6251 56.1094H73.6833C73.7452 56.1091 73.807 56.1134 73.8682 56.1224C73.9328 56.1322 73.9964 56.1475 74.0584 56.168C74.2493 56.2279 74.4188 56.3414 74.5469 56.495C74.6625 56.634 74.7257 56.8092 74.7254 56.99Z" fill="#FFB93E"/>
<path d="M53.5829 60.1361H30.5167C30.2855 60.1413 30.061 60.0585 29.8886 59.9045C29.7161 59.7504 29.6086 59.5366 29.5879 59.3063C29.5879 59.292 29.5879 59.2764 29.5879 59.262V56.9915C29.5879 56.9772 29.5879 56.9615 29.5879 56.9472C29.6086 56.7169 29.7161 56.5031 29.8886 56.349C30.061 56.195 30.2855 56.1122 30.5167 56.1174H50.7509C51.1807 57.7499 52.1824 59.1737 53.5738 60.1296L53.5829 60.1361Z" fill="#FFA412"/>
<path d="M69.4869 56.1152H68.9971V60.1352H69.4869V56.1152Z" fill="#FFA412"/>
<path d="M67.8306 56.1152H67.3408V60.1352H67.8306V56.1152Z" fill="#FFA412"/>
<path d="M65.8433 56.1152H65.3535V60.1352H65.8433V56.1152Z" fill="#FFA412"/>
<path d="M62.7994 56.1152H62.3096V60.1352H62.7994V56.1152Z" fill="#FFA412"/>
<path d="M59.5786 56.1152H59.0889V60.1352H59.5786V56.1152Z" fill="#FFA412"/>
<path d="M54.6431 56.1152H54.1533V60.1352H54.6431V56.1152Z" fill="#FFA412"/>
<path d="M50.023 56.1152H49.5332V60.1352H50.023V56.1152Z" fill="#FFA412"/>
<path d="M45.896 56.1152H45.4062V60.1352H45.896V56.1152Z" fill="#FFA412"/>
<path d="M71.064 56.1152H70.5742V60.1352H71.064V56.1152Z" fill="#FFA412"/>
<path d="M72.106 56.1152H71.6162V60.1352H72.106V56.1152Z" fill="#FFA412"/>
<path d="M73.1109 56.1152H72.6211V60.1352H73.1109V56.1152Z" fill="#FFA412"/>
<path d="M73.8729 56.1283V60.1197C73.8122 60.1291 73.7508 60.1339 73.6893 60.134H73.3779V56.1153H73.684C73.7473 56.1147 73.8104 56.1191 73.8729 56.1283Z" fill="#FFA412"/>
<path d="M74.5471 56.5014V59.7477C74.4192 59.9018 74.2496 60.0158 74.0586 60.076V56.168C74.2502 56.2296 74.4199 56.3454 74.5471 56.5014Z" fill="#FFA412"/>
<path d="M41.5592 94.0061C49.5502 86.0151 49.5502 73.0591 41.5592 65.0682C33.5682 57.0772 20.6123 57.0772 12.6213 65.0682C4.63031 73.0591 4.63031 86.0151 12.6213 94.0061C20.6123 101.997 33.5682 101.997 41.5592 94.0061Z" fill="#E2810E"/>
<path d="M39.774 94.0061C47.765 86.0151 47.765 73.0591 39.774 65.0682C31.7831 57.0772 18.8271 57.0772 10.8361 65.0682C2.84516 73.0591 2.84515 86.0151 10.8361 94.0061C18.8271 101.997 31.7831 101.997 39.774 94.0061Z" fill="#FFB93E"/>
<path d="M25.3051 98.4241C20.9918 98.4241 16.8119 96.9286 13.4776 94.1923C10.1434 91.456 7.861 87.6483 7.01945 83.4179C6.1779 79.1874 6.82923 74.7961 8.86246 70.9921C10.8957 67.188 14.185 64.2067 18.17 62.556C22.1549 60.9053 26.589 60.6874 30.7166 61.9394C34.8442 63.1915 38.41 65.836 40.8064 69.4223C43.2027 73.0087 44.2815 77.315 43.8587 81.6076C43.436 85.9001 41.538 89.9133 38.488 92.9633C36.7608 94.6999 34.7063 96.0767 32.4435 97.014C30.1807 97.9513 27.7544 98.4306 25.3051 98.4241ZM25.3051 62.2492C15.6394 62.2492 7.77392 70.1146 7.77392 79.7804C7.77392 89.4461 15.6446 97.3116 25.3051 97.3116C34.9656 97.3116 42.8363 89.4474 42.8363 79.7804C42.8363 70.1133 34.9722 62.2492 25.3051 62.2492Z" fill="#FFA412"/>
<path d="M27.8726 85.1908C27.9216 84.8301 27.9066 84.4637 27.8283 84.1083C27.7458 83.7777 27.589 83.4702 27.3697 83.2094C27.1063 82.8977 26.7992 82.6256 26.4579 82.4018C26.0049 82.1029 25.5307 81.8374 25.0393 81.6072C24.1423 81.1742 23.268 80.696 22.4196 80.1742C21.6986 79.7349 21.0412 79.1988 20.4656 78.5811C19.9482 78.0214 19.5541 77.3592 19.3089 76.6375C19.064 75.9202 18.9975 75.0921 19.1096 74.1533C19.1899 73.3884 19.4271 72.6483 19.8065 71.9792C20.1675 71.3464 20.658 70.7969 21.2459 70.3665C21.8714 69.9179 22.5719 69.5844 23.3146 69.3817C24.1553 69.153 25.0257 69.0528 25.8964 69.0847L26.2612 66.0117L28.7362 66.3048L28.3663 69.4208C29.1915 69.6203 29.978 69.9548 30.6941 70.4108C31.3569 70.8274 31.9292 71.373 32.3768 72.0153C32.8243 72.6576 33.1381 73.3834 33.2994 74.1494C33.4844 75.0172 33.5192 75.9103 33.4024 76.7899L28.9342 76.2598C29.0706 75.1108 28.9177 74.2211 28.4757 73.5906C28.0337 72.9601 27.3823 72.5945 26.5217 72.4938C26.1151 72.4361 25.7013 72.4537 25.3011 72.5459C24.9758 72.6224 24.6715 72.7701 24.4101 72.9783C24.1662 73.1792 23.9704 73.432 23.8369 73.7183C23.6937 74.0256 23.6017 74.3543 23.5647 74.6913C23.5215 75.0178 23.5352 75.3492 23.605 75.6709C23.6828 75.9881 23.8331 76.2828 24.044 76.532C24.3109 76.8443 24.6216 77.1163 24.9663 77.3396C25.4403 77.6531 25.9327 77.9376 26.4409 78.1916C27.3962 78.684 28.2603 79.1751 29.0332 79.6649C29.7543 80.1098 30.4117 80.6506 30.9872 81.2724C31.5347 81.8574 31.9415 82.5596 32.1767 83.3255C32.4119 84.0914 32.4694 84.9009 32.3446 85.6923C32.2643 86.4718 32.0225 87.226 31.6346 87.9068C31.269 88.5338 30.7743 89.0759 30.1835 89.4974C29.5529 89.9385 28.8463 90.2595 28.0992 90.4444C27.251 90.6573 26.377 90.7498 25.503 90.7193L25.1643 93.576L22.7062 93.2842L23.0436 90.4418C22.2069 90.2572 21.3962 89.9702 20.6298 89.5873C19.8817 89.2187 19.2103 88.7117 18.651 88.0931C18.0812 87.451 17.6576 86.6927 17.4096 85.8708C17.136 85.0023 17.0674 83.9945 17.2038 82.8473L21.6719 83.3775C21.5853 83.9557 21.6136 84.5454 21.7553 85.1126C21.8712 85.551 22.089 85.9559 22.391 86.2941C22.6747 86.6027 23.0242 86.8436 23.4136 86.9989C23.8061 87.1565 24.2179 87.2612 24.6381 87.3102C25.0712 87.3711 25.5115 87.3592 25.9407 87.275C26.2919 87.2068 26.6255 87.0681 26.9216 86.8673C27.1909 86.6818 27.4138 86.4366 27.5729 86.1508C27.7342 85.8533 27.836 85.5272 27.8726 85.1908Z" fill="#FFA412"/>
<path d="M62.9304 51.4409C60.8345 55.0884 58.1992 56.4953 58.1992 56.4953H47.2373C47.2373 56.4953 64.5301 48.6598 62.9304 51.4409Z" fill="#233862"/>
<path d="M54.5118 79.6596C54.3808 79.8038 54.294 79.9827 54.2619 80.1749C54.2298 80.3671 54.2537 80.5644 54.3308 80.7434C54.5913 81.4664 55.4563 82.2727 56.4606 83.0791C56.5909 83.182 56.7029 83.2758 56.8019 83.3631L56.8788 83.4321L56.9374 83.4855C57.8727 84.3479 57.521 84.5459 59.2027 86.2967C61.1189 88.291 62.4385 88.3262 62.8137 88.1451C63.1315 87.9901 62.4867 86.9323 61.7716 85.743L61.6674 85.5698C61.5723 85.4122 61.4772 85.2506 61.3834 85.093C60.5445 83.6601 60.7607 82.9905 60.9587 80.8607C61.1202 79.1307 63.6513 71.1936 63.6513 71.1936L59.9778 70.5605C59.9778 70.5605 58.8705 76.881 57.6526 77.8554C57.0012 78.3765 56.2704 78.3765 55.6452 78.7673L55.5149 78.8494C55.1459 79.0735 54.8086 79.346 54.5118 79.6596Z" fill="#FFB27D"/>
<path d="M54.5118 79.6579C54.3808 79.8021 54.294 79.981 54.2619 80.1732C54.2298 80.3654 54.2537 80.5628 54.3308 80.7418C54.6512 81.4634 55.494 82.2659 56.4632 83.0696C56.5935 83.1751 56.7016 83.2715 56.8019 83.3614L56.8788 83.4304L56.9374 83.4839C57.8727 84.3462 57.521 84.5442 59.2027 86.295C61.1189 88.2894 62.4385 88.3245 62.8137 88.1435C63.1315 87.9884 62.4867 86.9307 61.7716 85.7414C60.4304 85.2182 59.2515 84.3494 58.3547 83.2233C57.2005 81.7513 56.4307 79.8586 55.6452 78.7617L55.5149 78.8438C55.1457 79.0692 54.8083 79.343 54.5118 79.6579Z" fill="#233862"/>
<path d="M84.1322 77.3635C84.3601 78.4981 85.9754 78.3092 87.7796 77.8676C89.5838 77.426 89.1552 77.951 91.7254 77.6657C94.2955 77.3804 95.0745 76.423 95.1527 76.0413C95.223 75.7026 93.9529 75.5828 92.5903 75.4252C92.4197 75.4069 92.2477 75.3848 92.0693 75.3639C90.5308 75.1711 89.4053 74.1785 88.0076 73.3644C86.6854 72.5919 84.7105 69.4473 84.7105 69.4473L81.1855 69.726C81.1855 69.726 83.0353 72.5346 83.7505 73.7565C84.1712 74.4742 84.1491 75.4252 84.097 76.1586C84.0553 76.56 84.0672 76.9652 84.1322 77.3635Z" fill="#FFB27D"/>
<path d="M87.7823 77.8663C89.5878 77.4247 89.1579 77.9497 91.728 77.6644C94.2982 77.3791 95.0772 76.4217 95.1553 76.04C95.2257 75.7013 93.9556 75.5814 92.593 75.4238L92.5813 75.4512C91.4796 76.1571 90.2077 76.5523 88.9 76.5949C87.157 76.6366 85.3098 76.1377 84.1062 76.1572C84.0615 76.5583 84.0702 76.9634 84.1322 77.3622C84.3602 78.4968 85.9755 78.3079 87.7823 77.8663Z" fill="#233862"/>
<path d="M70.6261 54.824L67.3304 63.6899L63.0316 75.2653C62.2637 75.3229 61.4916 75.2524 60.7467 75.0569C59.7176 74.7599 58.5322 73.9809 58.5322 73.9809C58.5322 73.9809 59.7268 61.5522 61.9556 54.4163C62.5262 52.5847 63.1658 51.1036 63.8718 50.2699C67.3278 46.1874 70.6261 54.824 70.6261 54.824Z" fill="#233862"/>
<path d="M67.2754 40.7469C65.1168 40.05 58.9605 40.9449 52.7754 42.1551L51.4806 40.0187L38.1231 38.9766C38.1231 38.9766 33.7149 48.7465 36.1287 54.9798C36.4831 55.8916 37.3611 56.2824 38.5621 56.3006C38.5621 56.3006 46.5331 56.496 49.1137 56.496C55.7572 56.496 63.1733 51.9289 64.132 51.7374C65.703 51.4235 66.3309 54.5642 67.9006 57.8599C69.4703 61.1557 82.6611 72.4641 82.6611 72.4641C82.6611 72.4641 84.6893 72.4836 85.5269 72.1697C86.4284 71.8323 86.7579 71.3881 86.7579 71.3881C86.7579 71.3881 72.1434 42.3166 67.2754 40.7469Z" fill="#2B478B"/>
<path d="M50.0618 0.79194C49.2862 0.330453 48.3949 0.100386 47.4929 0.128882C47.0662 0.13581 46.6396 0.107486 46.2176 0.0442063C41.1555 -0.635782 38.1085 6.72034 37.9301 8.9492C37.5992 13.0565 35.4264 13.6831 32.3677 16.2558C26.2335 21.4144 28.0325 27.4092 31.3868 29.6354C33.3981 30.972 36.9453 29.6354 36.9453 29.6354C36.9961 29.6706 46.6462 24.2411 51.4048 21.6228C58.5329 20.608 52.9263 2.49712 50.0618 0.79194Z" fill="#233862"/>
<path d="M47.4165 19.3939C47.4373 19.4083 45.0717 20.2133 43.4968 19.5151C42.0104 18.8638 40.8915 16.4148 40.9084 16.4135C41.5832 16.3822 42.3257 15.7908 42.8963 11.9141L43.1841 12.0183L48.0222 13.7586C48.0222 13.7586 47.6718 15.3114 47.4451 16.7886C47.2536 18.0261 47.152 19.2181 47.4165 19.3939Z" fill="#FFB27D"/>
<path d="M48.0217 13.7579C48.0217 13.7579 47.6713 15.3107 47.4446 16.7879C44.666 16.2877 43.5757 13.5195 43.1836 12.0176L48.0217 13.7579Z" fill="#ED975D"/>
<path d="M48.7424 15.2981C48.7424 15.2981 42.1236 14.4097 42.7397 10.2959C43.3559 6.18214 42.9182 3.29675 47.1688 3.69015C51.4193 4.08356 52.0055 5.77441 52.1332 7.19952C52.2609 8.62463 50.4801 15.4193 48.7424 15.2981Z" fill="#FFB27D"/>
<path d="M51.8933 4.94642C51.8933 4.94642 47.6557 8.59386 44.7729 8.89217C41.8901 9.19048 40.7998 8.26168 40.7998 8.26168C41.9499 7.23229 42.8762 5.97748 43.5211 4.57515C43.668 4.2452 43.9003 3.96048 44.1942 3.75046C44.488 3.54045 44.8326 3.41277 45.1924 3.38062C47.2506 3.20215 51.1507 3.12139 51.8933 4.94642Z" fill="#233862"/>
<path d="M49.2441 4.61677C49.2441 4.61677 50.6627 5.98716 51.1082 7.00454C51.5394 7.98544 51.6684 10.3315 51.3258 11.2629C51.3258 11.2629 53.5403 6.96416 52.2832 4.8799C50.9571 2.66929 49.2441 4.61677 49.2441 4.61677Z" fill="#233862"/>
<path d="M52.9892 29.1423C52.7899 42.5415 52.9345 39.7421 51.469 41.0134C51.1159 41.3196 50.1233 41.5019 48.8168 41.5879C44.7082 41.8602 37.4836 41.1841 37.2114 40.4246C36.263 37.7972 36.9326 36.9804 36.1419 32.9591C36.0585 32.5305 35.9569 32.0681 35.837 31.5639C35.1779 28.801 34.5344 27.8618 36.8792 23.4236C38.9999 19.4036 41.204 16.1404 41.402 16.259C46.9969 19.5808 47.449 16.7892 47.449 16.7892C47.449 16.7892 53.0869 22.6069 52.9892 29.1423Z" fill="white"/>
<path d="M67.3304 63.6916L63.0316 75.267C62.2637 75.3246 61.4916 75.2541 60.7467 75.0586C59.7176 74.7616 58.5322 73.9826 58.5322 73.9826C58.5322 73.9826 59.7268 61.5539 61.9556 54.418L67.3304 63.6916Z" fill="#2B478B"/>
<path d="M47.4453 16.7871C47.4453 16.7871 53.2031 17.7641 53.8792 20.2431C54.5552 22.722 58.5336 37.2949 58.5336 37.2949C58.5336 37.2949 55.6065 37.8159 54.2543 36.469C52.9022 35.122 49.5491 23.9231 49.5491 23.9231L47.4453 16.7871Z" fill="white"/>
<path d="M48.8165 41.5883C44.7079 41.8606 37.4833 41.1845 37.2111 40.425C36.2628 37.7976 36.9323 36.9808 36.1416 32.9595L38.123 27.3789C38.123 27.3789 37.7947 33.5926 39.6275 35.2274C41.4604 36.8623 47.1308 38.3825 48.0219 39.7476C48.4504 40.4029 48.7318 41.0607 48.8165 41.5883Z" fill="#EBF3FF"/>
<path d="M44.1084 38.9774C44.1084 38.9774 48.161 38.0747 48.8162 38.4342C49.4715 38.7937 51.0685 40.1042 51.2678 40.5601C51.4671 41.0161 49.8114 40.2136 49.2734 40.069C48.9243 39.9752 48.006 40.2944 47.5513 40.4468C45.639 41.0838 44.4666 40.7555 44.4666 40.7555L44.1084 38.9774Z" fill="#FFB27D"/>
<path d="M41.3945 16.2559C41.3945 16.2559 35.952 16.5906 34.0683 19.2194C31.4161 22.9177 26.1547 38.6825 29.1703 40.7849C32.565 43.1532 44.6238 41.405 44.6238 41.405C44.6238 41.405 45.025 39.5292 44.4674 38.6212C43.9099 37.7133 34.8356 36.2478 34.4174 35.8296C33.9993 35.4115 39.6515 27.6632 39.6515 26.4075C39.6515 25.1517 41.3945 16.2559 41.3945 16.2559Z" fill="white"/>
<path d="M49.0127 39.5586C49.0127 39.5586 49.862 40.6541 50.1408 40.7844C50.2809 40.8608 50.4401 40.8952 50.5993 40.8834L50.0262 39.853L49.0127 39.5586Z" fill="#FFB27D"/>
<path d="M48.8164 38.4316L51.2915 39.6301C51.243 39.6898 51.1797 39.7359 51.108 39.7638C51.0363 39.7916 50.9585 39.8003 50.8824 39.789C50.5789 39.7747 49.8116 39.4946 49.8116 39.4946L48.8164 38.4316Z" fill="#FFB27D"/>
<path d="M50.1406 42.4642H69.6727L75.5477 27.8535H56.0456L50.1406 42.4642Z" fill="#F99746"/>
<path d="M69.9011 41.8945H44.1084V42.4638H69.6718L69.9011 41.8945Z" fill="#ED7D2B"/>
<path d="M64.7416 35.1593C64.8889 34.646 64.5918 34.2305 64.0786 34.2305C63.8083 34.2452 63.5489 34.342 63.335 34.508C63.1211 34.6739 62.9629 34.9011 62.8814 35.1593C62.7342 35.6803 63.0313 36.0894 63.5445 36.0894C63.815 36.0745 64.0745 35.9775 64.2884 35.8113C64.5023 35.6452 64.6604 35.4177 64.7416 35.1593Z" fill="white"/>
</g>
<defs>
<clipPath id="clip0_48207_147932">
<rect width="90.3147" height="100" fill="white" transform="translate(4.84277)"/>
</clipPath>
</defs>
</svg>
