<svg width="56" height="100" viewBox="0 0 56 100" fill="none" xmlns="http://www.w3.org/2000/svg">
<g clip-path="url(#clip0_48207_148157)">
<path d="M31.3145 18.089C28.8549 16.7621 25.8869 17.2945 24.2048 19.4862C23.4626 19.2622 22.6829 19.1908 21.9124 19.276C21.142 19.3612 20.3967 19.6014 19.7215 19.9822C17.111 21.4963 15.5061 25.7299 17.6308 28.026C18.1506 30.3891 18.5535 32.8271 20.9053 32.8543C22.2968 35.4047 27.1694 35.5783 29.6676 33.1755C31.8513 33.8565 34.1838 32.608 35.6979 30.8737C36.0543 30.464 36.3562 29.8193 36.4924 29.7387C36.4924 29.7387 42.1209 28.6945 41.5999 23.243C41.0597 17.5317 35.1236 13.6034 31.3145 18.089Z" fill="#F47458"/>
<path d="M9.9064 86.3633C10 88.0286 10.2243 89.684 10.5772 91.3142C10.6101 91.4402 11.0142 91.9396 11.0516 92.0701C10.4467 94.9791 8.4411 96.4887 6.60352 97.5102C7.14946 96.0756 8.17096 94.482 8.10627 94.1381C7.76644 92.0283 7.27329 89.9461 6.63075 87.908C8.04838 87.9296 8.65789 87.1056 9.9064 86.3633Z" fill="#F7A491"/>
<path d="M16.7258 50.8906L25.4869 57.9629C25.4869 57.9629 21.0831 62.3168 19.4316 63.9341C17.7802 65.5515 9.4674 71.3866 9.32212 71.7589C9.29261 71.8327 9.73184 72.7203 9.86917 73.8269C10.2381 76.8165 10.7136 85.2224 10.8442 90.2085C9.90323 91.1971 8.26656 91.8769 7.04869 92.1891C4.04205 86.06 2.48481 71.272 2.49616 69.8589C2.51545 67.5582 16.7258 50.8906 16.7258 50.8906Z" fill="#B75742"/>
<path d="M42.2707 66.2675C41.9302 66.4877 39.2368 69.8496 38.087 71.7155C37.1949 70.7871 36.7421 69.8235 35.6797 69.0891C36.8964 67.9178 39.4059 65.0031 39.7248 64.2426C40.4808 62.4414 40.9507 62.2598 40.9507 62.2598C40.9507 62.2598 46.5315 65.8192 46.8039 66.5126C47.0763 67.2061 43.6497 65.3822 42.2707 66.2675Z" fill="#F7A491"/>
<path d="M39.5641 64.646C39.0954 64.5325 40.084 62.4418 40.3007 61.9572C40.5459 61.4124 40.9012 61.3148 40.9817 61.3125C41.2087 61.3125 47.4104 65.2646 48.3593 66.3849C48.4329 66.4898 48.4918 66.6044 48.5341 66.7254C48.8939 68.0874 43.3131 67.0103 42.6252 66.2929C42.0271 65.6505 41.6741 65.1352 39.5641 64.646Z" fill="#184655"/>
<path d="M14.8242 52.941L22.5491 49.7539C22.5184 49.7687 22.5934 50.0819 22.599 50.1058C23.2971 53.05 24.8781 51.6948 26.4251 56.8023C27.5182 60.4162 27.1232 73.4018 27.1232 73.4018C27.1232 73.4018 33.8118 69.2761 37.5914 66.4669C37.9319 66.2115 40.0453 69.5768 40.0453 69.5768C34.9071 78.2131 24.3379 82.3264 23.3277 81.9291C19.8829 80.5739 16.9365 57.1859 16.9455 57.1927C16.2804 55.8137 14.8242 52.941 14.8242 52.941Z" fill="#B75742"/>
<path d="M27.3193 33.4464C27.3193 33.4464 36.791 31.5385 38.8964 31.2434C41.0019 30.9483 48.3556 28.5795 48.6382 28.4774C48.9208 28.3752 50.0638 24.5366 50.4667 24.8283C50.8697 25.12 49.7857 26.7578 50.2908 27.003C50.7959 27.2482 55.2372 25.4253 55.2565 25.7953C55.2951 26.4888 52.5835 27.0189 52.6607 27.3401C52.7379 27.6613 55.4358 26.5161 55.749 27.0064C56.0623 27.4967 53.092 27.844 53.025 28.1085C52.9581 28.373 55.8625 28.1687 55.6946 28.7316C55.6004 29.0369 53.1067 28.8451 53.1975 29.214C53.2883 29.5829 55.1929 30.0289 55.0544 30.3694C54.916 30.7099 53.5165 29.7747 52.5268 29.9847C51.537 30.1946 50.7107 29.8201 49.2352 30.6305C47.7597 31.4409 42.9189 34.9276 39.5252 35.5292C36.1316 36.1307 28.6291 37.4814 28.6291 37.4814L27.3193 33.4464Z" fill="#F7A491"/>
<path d="M9.95741 15.7545C9.36947 13.7614 8.89391 12.0283 8.861 11.8955C8.79063 11.6038 11.375 8.54153 10.9097 8.36447C10.4443 8.1874 9.67024 9.99434 9.18673 9.70377C8.70322 9.41321 7.79409 4.70293 7.47288 4.8902C6.87246 5.23865 7.91553 7.79582 7.60567 7.90819C7.29581 8.02056 6.77258 5.13536 6.19032 5.14217C5.60806 5.14898 6.9485 7.82307 6.75782 8.01943C6.56714 8.21578 5.14838 5.67676 4.77269 6.12963C4.56952 6.37593 6.09384 8.35766 5.73631 8.47797C5.37878 8.59828 3.96571 7.26464 3.75913 7.56996C3.55256 7.87528 5.09958 8.53131 5.46165 9.47337C5.82372 10.4154 6.59665 10.9023 6.7249 12.5765C6.77711 13.2495 6.76577 14.6195 6.82366 16.2142C7.8883 16.1404 8.93817 16.0315 9.95741 15.7545Z" fill="#F7A491"/>
<path d="M10.5872 91.3899C10.8199 90.9507 12.4203 92.6623 12.8039 93.0164C13.2352 93.4159 13.2239 93.7996 13.2012 93.8835C13.1433 94.1105 7.90068 99.3373 6.47738 99.9672C6.32294 100.014 6.15756 100.008 6.00633 99.9524C5.30603 99.5586 7.08687 94.9459 8.16853 94.131C8.86883 93.6055 9.5419 93.3637 10.5872 91.3899Z" fill="#184655"/>
<path d="M5.3889 14.7985C5.68173 17.2036 5.97571 19.6087 6.30259 22.0092C6.68509 24.824 8.0051 27.4039 9.36143 29.8601C9.72918 30.5252 12.914 35.0811 12.5781 35.694C12.5781 35.694 11.5724 37.5418 11.8301 38.9118C13.5076 47.8284 10.2411 54.9052 5.40367 62.1216C4.05528 64.1351 2.78179 66.2439 1.96004 68.5344C1.14624 70.8044 1.17802 73.0199 0.988468 75.366C0.718336 78.6961 0.477716 82.0297 0.224609 85.3609C0.224609 85.3609 7.60785 88.1349 11.2932 85.3121C14.9786 82.4893 20.5821 85.9636 23.616 86.5016C26.6499 87.0396 34.0785 83.0217 35.5223 79.166C36.9478 75.3603 35.8775 67.0214 35.8492 66.8046C35.8991 67.1871 29.4715 69.212 28.7962 67.9748C28.3422 67.1497 29.0607 64.4563 29.0675 63.4564C29.0785 61.7356 28.9746 60.016 28.7565 58.3091C28.3025 54.7588 26.9745 51.5399 26.1743 48.119C25.6398 45.8365 24.2993 42.6709 24.9814 40.3192C25.3571 39.0219 35.6006 37.585 40.4278 36.3274C45.255 35.0698 48.9188 32.0927 48.9188 32.0927L47.2163 28.0259C47.2163 28.0259 39.8932 30.4696 36.1261 30.8861C32.359 31.3027 24.1517 33.7543 18.8921 32.1982C13.6325 30.6421 10.9278 20.7017 10.9278 20.7017L9.33874 13.3457L5.3889 14.7985Z" fill="#355389"/>
<path d="M21.9872 29.4248C21.9872 29.4248 21.4765 32.0603 21.5662 33.1023C21.6558 34.1442 21.1564 37.4948 19.0487 37.4879C16.941 37.4811 18.6832 33.2192 18.8909 32.2011C19.0986 31.183 19.1713 28.0254 19.1713 28.0254L21.9872 29.4248Z" fill="#F7A491"/>
<path d="M21.3529 34.9953C20.8837 35.215 20.3609 35.2939 19.8478 35.2223C19.076 35.0952 18.639 34.53 18.3927 33.9375C17.9603 35.5174 17.6198 37.4765 19.0488 37.481C20.3484 37.4901 21.0373 36.2166 21.3529 34.9953Z" fill="white"/>
<path d="M19.1143 29.6087C19.154 28.7461 19.171 28.0254 19.171 28.0254L21.987 29.4248C21.987 29.4248 21.8826 29.964 21.7759 30.6506C20.5364 30.9003 19.6432 30.4146 19.1143 29.6087Z" fill="#F47458"/>
<path d="M23.082 22.1519C23.7967 22.6272 24.3195 23.3407 24.5575 24.1654C24.9445 25.5376 24.461 29.0664 21.6394 29.8949C18.8178 30.7235 17.6226 27.9166 18.2207 25.7351C18.8189 23.5536 20.098 20.7933 23.082 22.1519Z" fill="#F7A491"/>
<path d="M17.8702 24.8834C17.9201 25.4714 18.2266 25.9231 18.5512 25.8925C18.8758 25.8618 19.104 25.3601 19.0529 24.7722C19.0018 24.1843 18.6965 23.7325 18.3719 23.7632C18.0473 23.7938 17.8202 24.2955 17.8702 24.8834Z" fill="#F7A491"/>
<path d="M22.752 21.9727C22.752 21.9727 23.2298 25.9168 24.4431 26.6387C25.6565 27.3605 25.1309 29.1039 25.1309 29.1039C25.1309 29.1039 26.266 25.0531 25.3182 23.7421C24.3705 22.4312 22.752 21.9727 22.752 21.9727Z" fill="#F47458"/>
<path d="M23.7163 27.1946C23.3758 27.7053 23.3758 28.3103 23.7084 28.5464C24.041 28.7825 24.5778 28.5611 24.9126 28.0504C25.2475 27.5396 25.2531 26.9335 24.9206 26.6974C24.588 26.4614 24.0512 26.6861 23.7163 27.1946Z" fill="#F7A491"/>
<path d="M16.6766 6.78072C16.3358 6.60216 16.0214 6.37717 15.7425 6.11219C15.1432 5.54469 14.8345 4.92043 14.8254 4.26099C14.8107 3.23949 15.5269 2.50626 15.5575 2.47562C15.5864 2.44642 15.6257 2.4299 15.6668 2.42969C15.7079 2.42948 15.7473 2.44559 15.7765 2.47449C15.8057 2.50339 15.8223 2.5427 15.8225 2.58378C15.8227 2.62486 15.8066 2.66435 15.7777 2.69355C15.772 2.70036 15.1228 3.36661 15.1364 4.25986C15.1455 4.82736 15.4213 5.38011 15.957 5.88859C17.714 7.55479 20.2632 6.81023 20.2882 6.80228C20.3275 6.79024 20.37 6.7943 20.4062 6.81356C20.4425 6.83282 20.4697 6.86571 20.4817 6.905C20.4938 6.94428 20.4897 6.98674 20.4705 7.02303C20.4512 7.05932 20.4183 7.08648 20.379 7.09852C20.2848 7.12689 18.3973 7.67851 16.6766 6.78072Z" fill="#F7CC7F"/>
<path d="M17.2141 1.24397L16.4083 1.984C16.3211 1.92122 16.2195 1.88161 16.1129 1.86891C16.0063 1.8562 15.8982 1.87081 15.7987 1.91136C15.4809 2.0328 15.3107 2.36536 15.4197 2.64117C15.5286 2.91698 15.8736 3.05204 16.1926 2.92946C16.2888 2.89489 16.3753 2.83749 16.4445 2.76217C16.5137 2.68685 16.5635 2.59586 16.5898 2.49702L17.7033 2.50951L19.5477 2.53107L18.5693 0L17.2141 1.24397Z" fill="#F7CC7F"/>
<path d="M24.0714 8.31055C24.4721 8.63062 25.1701 9.6612 26.0611 10.3853C26.5821 10.8076 26.9827 10.7009 27.6501 10.7803C30.8043 11.1617 29.9496 11.8018 30.3287 11.8699C30.2209 12.1174 29.238 14.2069 29.0541 14.6291C28.885 15.0185 28.5922 15.1966 28.1677 15.1342C27.515 15.0434 26.8567 14.9765 26.2155 14.8369C24.5686 14.4805 23.6526 13.6564 22.4699 12.6565C22.3233 12.5478 22.22 12.3906 22.1785 12.2129C22.1369 12.0352 22.1597 11.8485 22.2429 11.6861C22.9977 9.93928 23.9897 8.47172 24.0714 8.31055Z" fill="#466EB6"/>
<path d="M34.8214 12.849C33.0122 11.3357 31.203 9.82537 29.3938 8.31808C28.8157 7.82823 28.1041 7.523 27.3507 7.44185C26.7662 7.37261 21.0049 6.65755 20.417 6.58378C20.2013 6.55654 20.0004 6.56562 19.8495 6.74609C19.8024 6.79935 19.767 6.86187 19.7455 6.92963C19.724 6.99739 19.717 7.0689 19.7248 7.13956C19.7326 7.21021 19.755 7.27846 19.7908 7.3399C19.8265 7.40134 19.8748 7.45463 19.9323 7.49633C21.7703 9.03616 23.609 10.5752 25.4485 12.1136C25.9678 12.5533 26.6056 12.8297 27.2815 12.9081L34.4241 13.7786C34.7408 13.8478 34.9496 13.7264 35.0461 13.4733C35.1369 13.2463 35.0688 13.0556 34.8214 12.849Z" fill="#355389"/>
</g>
<defs>
<clipPath id="clip0_48207_148157">
<rect width="55.5508" height="100" fill="white" transform="translate(0.224609)"/>
</clipPath>
</defs>
</svg>
