<svg width="24" height="25" viewBox="0 0 24 25" fill="none" xmlns="http://www.w3.org/2000/svg">
<path d="M9.5 1.5C7.81886 1.5 6.17548 1.99852 4.77766 2.93251C3.37984 3.8665 2.29037 5.19402 1.64703 6.74719C1.00368 8.30036 0.835355 10.0094 1.16333 11.6583C1.4913 13.3071 2.30085 14.8217 3.4896 16.0104C4.67834 17.1992 6.1929 18.0087 7.84174 18.3367C9.49057 18.6646 11.1996 18.4963 12.7528 17.853C14.306 17.2096 15.6335 16.1202 16.5675 14.7223C17.5015 13.3245 18 11.6811 18 10C17.9974 7.74647 17.101 5.586 15.5075 3.99252C13.914 2.39903 11.7535 1.50265 9.5 1.5ZM9.5 17.5C8.01664 17.5 6.5666 17.0601 5.33323 16.236C4.09986 15.4119 3.13856 14.2406 2.57091 12.8701C2.00325 11.4997 1.85473 9.99168 2.14411 8.53682C2.4335 7.08196 3.14781 5.74559 4.1967 4.6967C5.2456 3.64781 6.58197 2.9335 8.03683 2.64411C9.49168 2.35472 10.9997 2.50325 12.3701 3.0709C13.7406 3.63856 14.9119 4.59985 15.736 5.83322C16.5601 7.06659 17 8.51664 17 10C17 11.9891 16.2098 13.8968 14.8033 15.3033C13.3968 16.7098 11.4891 17.5 9.5 17.5Z" fill="white"/>
<path d="M22.5 23L15.5 16" stroke="white" stroke-miterlimit="10" stroke-linecap="round"/>
</svg>
